<svg xmlns="http://www.w3.org/2000/svg" viewBox="0 0 512 512">
  <path fill="#fdbf00" d="M262 9c6 4 6 4 11 14l1.6 4.2a13399 13399 0 0 0 51.1 128.6l.8 2C331 169 331 169 331 172l1.9.1 25.3 1.5 2.1.2 87.3 5.4 3.2.3c49.6 3.2 49.6 3.2 57.2 7.5l4 6v12c-10.4 12-22.6 21.2-35 31l-15 13-4.7 3.8-12.8 10.7-20.2 16.7-16.5 13.7q-6.4 5.6-13 10.8-7.5 6-14.8 12.3c2.7 14.8 6.6 29.3 10.3 43.9l.6 2.5L420 477v11c-4 6-4 6-8 9-3 1-3 1-12 1-14-8-14-8-17-10a5026 5026 0 0 0-55-35 8570 8570 0 0 1-71-45c-13.3 5.3-25.5 14.7-37.6 22.3L178.5 456l-43.7 27.4c-21 13.3-21 13.3-24.8 14.6-8 0-8 0-15-4l-4-6c0-17 5.7-33.4 9.9-49.9l4.6-18Q118 370.6 131 321l-1-5a1201 1201 0 0 0-26-22l-14-12-4.7-3.8-14.4-12L55 253l-14-12-4.7-3.8-17.6-14.7-9-7.7-3.3-2.8-2.4-2-4-6v-11c4-6 4-6 11-10l143-9.4 2-.2 24-1.4 1-5 49.6-125c11-27.7 11-27.7 16.4-32 4.5-2.2 10-1 15-1"/>
  <path fill="#fed92c" d="M256 9v162l-9 3c-12.8 12.8-18.3 39-25 56l-1 1-38 2c-18.4.3-18.4.3-26 6-3.6 6-3.6 6-3 14 5.8 8.7 13.8 14.8 21.9 21.4L200 294c0 6 0 6-5 24l-4 17-3 10v11c2.8 5.3 2.8 5.3 8 9 10.6.8 10.6.8 21-6l3.5-2.2L255 335h1v72l-26 16.8-2.4 1.4-22.7 14.2-43 27-18.6 11.7c-29.2 18.5-29.2 18.5-33.3 19.9-8 0-8 0-15-4l-4-6c0-17 5.7-33.4 9.9-49.9l4.6-18Q118 370.6 131 321l-1-5a1201 1201 0 0 0-26-22l-14-12-4.7-3.8-14.4-12L55 253l-14-12-4.7-3.8-17.6-14.7-9-7.7-3.3-2.8-2.4-2-4-6v-11c4-6 4-6 11-10l143-9.4 2-.2 24-1.4 1-5 49.6-125c11-27.7 11-27.7 16.4-32 2-1 2-1 9-1"/>
  <path fill="#fe9100" d="M256 171c6 1 6 1 12 5 5 11 5 11 6.3 14.4l10.2 25.8 1 2.4.9 2.3.8 2 2.8 7.1 55 3 8 4 5 8-1 10c-8.5 9.7-18.2 17.5-28.1 25.7q-8 6.5-15.9 13.3h-2q5.6 23.6 12 47c1 4 1 4 1 15l-4 7c-6 3-6 3-16 3-35.6-22.1-35.6-22.1-48-31z"/>
  <path fill="#979fef" d="M127 93h11c6 4 6 4 9 8 1 3 1 3 1 11-3 6-3 6-9 11-8 1-8 1-15-1-6-7-6-7-7-10 0-8 0-8 4-15z"/>
  <path fill="#727de6" d="M384 93c6 3 6 3 10 9 1 3 1 3 1 10-3 6-3 6-7 10-6 2-6 2-15 1-7-6-7-6-9-10 0-9 0-9 3-15 6.3-5 6.3-5 17-5m80 236c6 7 6 7 7 9v10c-4 6-4 6-10 10h-11c-6-4-6-4-10-12 0-7 0-7 4-14 8.8-5.9 8.8-5.2 20-3"/>
  <path fill="#969eef" d="M250 473h12c6 4 6 4 9 9v12c-4 6-4 6-9 9h-12c-6-4-6-4-9-9-1-7-1-7 1-14 5-5 5-5 8-7"/>
  <path fill="#979fee" d="M50 328h12c6 4 6 4 10 12-1 9-1 9-5 15l-5 3H51c-6-4-6-4-10-10v-10c4-6 4-6 9-10"/>
  <path fill="#747fe6" d="M256 473h6c6 4 6 4 9 9v12c-4 6-4 6-9 9h-6z"/>
</svg>
