<svg xmlns="http://www.w3.org/2000/svg" viewBox="20.3 21.9 501.6 351.6">
  <path fill="#495a9d" d="M373.5 29.5v1q-4 .3-7 3-1.5-.2-2 1l-6 3q-.3-2.8 2-4.5-2.4-2.7-2.5-6.5-1.5 2-2.5 0 5.7-1.7 12-.5a30 30 0 0 1 6 3.5" style="--darkreader-inline-fill:var(--darkreader-text-495a9d, #7e9cc3)"/>
  <path fill="#2f428c" d="M355.5 26.5q1 2 2.5 0 .1 3.8 2.5 6.5a5 5 0 0 0-2 4.5l-1 2-4 3q-4.5 3-7 8a28 28 0 0 0-5 5q-3-1.9-4 2-.9-1 0-3-.2-1.5.5-3 1.3 1.8 2.5 0 1.7-3.9 4-7.5a19 19 0 0 1-3-8q1.7-1.5-1-2l3-3q-1.5-1-2.5.5-.6-2-2.5-2 8-3 17-3" style="--darkreader-inline-fill:var(--darkreader-text-2f428c, #85a9d6)"/>
  <path fill="#9092b8" d="M399.5 25.5q-3.3 3.9-.5 8l1-2q.8 2.5-1.5 4 2.5 1.2 4 3.5-1 1.5 0 3.5a18 18 0 0 0-6-4 32 32 0 0 1-9-7.5l1-1a9 9 0 0 0-4-3.5q7.5-2.8 15-1" style="--darkreader-inline-fill:var(--darkreader-text-9092b8, #afa89d)"/>
  <path fill="#22327c" d="M338.5 29.5q1.9 0 2.5 2 1.1-1.5 2.5-.5l-3 3q2.7.5 1 2a19 19 0 0 0 3 8 53 53 0 0 0-4 7.5q-1.2 1.8-2.5 0a5 5 0 0 0-.5 3q-2.2 3-4.5 4-.7-6-2.5-12l3-12.5q-2.1-1.2-4 .5l-2 8q-.3-3.6-1-7l-8 3q5.8-4.7 13-7.5.9-1.2 1.5-2.5a9 9 0 0 0 5.5 1" style="--darkreader-inline-fill:var(--darkreader-text-22327c, #8db0e0)"/>
  <path fill="#716ea6" d="m399.5 25.5 8 3q1.5 6.9 4 13.5-3.7 1 0 2.5l-2 3 2 1q-.7 1.2-2 1-4-3-7-7-1-2 0-3.5-1.5-2.3-4-3.5 2.3-1.5 1.5-4l-1 2q-2.9-4.1.5-8" style="--darkreader-inline-fill:var(--darkreader-text-716ea6, #9e9689)"/>
  <path fill="#5d5a9d" d="M407.5 28.5h3q4 10.8 7 22-3.9-.5-7 1v1h-4a6 6 0 0 0 3-3q1.3.2 2-1l-2-1 2-3q-3.7-1.5 0-2.5-2.5-6.6-4-13.5" style="--darkreader-inline-fill:var(--darkreader-text-5d5a9d, #8093b6)"/>
  <path fill="#28211f" d="M260.5 246.5q0 .7-.5 1-1.2-2.3-3.5-3.5 3.3-1 .5-3.5-1.5 1.3-3.5 1-.3-3-2.5-5-1-1.1-2.5-1a44 44 0 0 1-10-21l-1-1a3 3 0 0 0-1 3q-2.7 2.3-3-1.5 2.4-6 .5-11.5l-9.5-8.5a8 8 0 0 0-4-.5 65 65 0 0 0-5-13 7 7 0 0 0 5 3q2.1 3 2 7 2.7 0 5 1.5a64 64 0 0 0 9.5 9.5q4.6 9 7 19 1 3.1 3.5 5a40 40 0 0 1 7 10l2-2a4 4 0 0 0 2.5-3q.8-6.1 2.5-12 1.9 0 2.5-2 2-4.2.5-8.5.2-2.9 2-5a249 249 0 0 0-5-40.5q1.8-4.2-1.5-6-2-5.9-3.5-12a5 5 0 0 0-3-3q-5-7.8-8-17-5-4-7-10-1.5.2-3-.5a10 10 0 0 0-4-3.5l-2 1-2 9-2-17q.8-11.2-2.5-22-1.4-2.4-3.5-4-7.2-8.6-18-5-1.2-1.8 0-4 2.2-1.4 4-3.5l8-.5a61 61 0 0 0-47-29.5q-8-1-16 0-2.4.3-4 1.5-23 7.5-37.5 27a7 7 0 0 0-.5 8q-.6 14.8-3 29.5.6 10.2 3 20-.9 2.4-3 4-4 .8-8 .5-.4-6-3.5-11-1-1.1-2.5-1-5.2-5-12-1.5a74 74 0 0 0-7 7.5 9 9 0 0 1-2-7l2-5q-.4-4.2-4.5-5a7 7 0 0 1-4.5 2q-.2 2.6-1 5-2 4.5-6 7a96 96 0 0 1-8.5 7q-4.2 9-7.5 18v2a5 5 0 0 0-3.5 3q-.6 7.7-5 14l-1.5 9a9 9 0 0 0-1.5 4q-1 22 1 44 5.2 17.4 13 34 1.7 1.2 3.5 2a21 21 0 0 1-2 7q3.6 2.2 7 5 1 1.9 1 4 2.2-.5 4 1 3 7.5 11 7 .5-4.8-1-9-2.7-13.5-6-27-5.7-12-9-25 .6-4.4 3-8 7.8-3 15-7.5a9 9 0 0 1 6-4q1.1-1 1-2.5 3-1 6-1 .3 2-1 3.5-4.7 2.5-10 4-6 8.7-16 12.5-1.3 1.8-2 4 2.3 2.5 4 5.5-1 2 2 2.5 1 0 1 1-1 .6-1 2 3 14.7 7.5 29l2.5 22.5q-.1 1.5-1.5 2.5a8 8 0 0 0-9.5-2 128 128 0 0 1-33.5-106q7.2-48.5 44-80a25 25 0 0 1 12-26q3.3-7.5 8-14 21.3-16.9 47.5-24.5 38.5-9.7 70 14A72 72 0 0 1 230 98.5a208 208 0 0 1 25 34q17.7 36 14 76-3 19.3-8.5 38" style="--darkreader-inline-fill:var(--darkreader-background-28211f, #201a19)"/>
  <path fill="#b6c2e6" d="M373.5 30.5a7 7 0 0 1-4 3.5q.3 3 0 6a62 62 0 0 1 1.5 10.5l1 2q1-2 2 0 2.4 4.5.5 8.5.8 1 2 1.5 4.5-3.3 10-3v1a5 5 0 0 0-4 3 7 7 0 0 0-4 2q-2.4-.3-4.5 1-4.3-6.5-7-14-.7-6-2.5-11.5 1.3-3.7 2-7.5 3-2.7 7-3" style="--darkreader-inline-fill:var(--darkreader-background-b6c2e6, #34383a)"/>
  <path fill="#acb2dc" d="M396.5 38.5a18 18 0 0 1 6 4q3 4 7 7a6 6 0 0 1-3 3q-7 .2-13 4a45 45 0 0 1-7 3q.8-2.6 0-4.5 4.5-.2 8.5-2.5 1.7-7.2 1.5-14" style="--darkreader-inline-fill:var(--darkreader-text-acb2dc, #a1b7d7)"/>
  <path fill="#ecd4b9" d="M146.5 37.5q19.3-.2 37 5.5 7.4 4.4 15 7.5v3q1.5-.2 3 .5 4.4 4.6 5 10-4.8.9-5 5.5-1.2 2.2 0 4 10.8-3.6 18 5-2 1.5-4-.5l1-1q-1.9-1.7-3.5-.5-.5-1.2-1.5-2l-6.5 2q-6-2-11.5-3 .8-2.3 2-4.5l-1-1q3.8-5 8-9.5-2.7-3-6.5-4-.7-1.8 1.5-2.5-3-.6-5.5-2.5l-1 1q-3-3.2-7-5a23 23 0 0 1-18.5 0 9 9 0 0 1-10-1q-5.4.6-9.5 4a7 7 0 0 0-2.5-2q.7 2-2 3a68 68 0 0 0-25.5 20q-1-2-2 0-.7 1.5.5 3-2.8 1-1 3-3 3-1 6.5-2 .7-2 2.5l-2-12a7 7 0 0 1 .5-8q14.5-19.5 37.5-27" style="--darkreader-inline-fill:var(--darkreader-background-ecd4b9, #523616)"/>
  <path fill="#47458d" d="M410.5 28.5q8.8-.3 16 4-2.6-.5-5-.5 2.5 1.3 1 3 1.8 6.7 5.5 12.5 1 5.2-2 1a11 11 0 0 1-8.5 2q-3-11.2-7-22" style="--darkreader-inline-fill:var(--darkreader-text-47458d, #889ec5)"/>
  <path fill="#30307c" d="M426.5 32.5q5.5.5 10 3.5a73 73 0 0 1 30 43.5 43 43 0 0 1-5.5-12q-2.1-1-4.5-1.5.7-.7 1-1.5l-4-2.5q2.7-.8 1-2.5-1.5.7-2.5 2-.6-4.2-4-3a29 29 0 0 0-5-4q-.7.7-1.5 1a50 50 0 0 0-15-4h-16q3.1-1.5 7-1 4.8.7 8.5-2 3 4.2 2-1-3.7-5.8-5.5-12.5 1.5-1.7-1-3 2.4 0 5 .5" style="--darkreader-inline-fill:var(--darkreader-background-30307c, #262663)"/>
  <path fill="#b9b5b2" d="M120.5 46.5a61 61 0 0 0-25 19q-13.3 7.2-4-5a72 72 0 0 1 34-19q0 4.8-5 5" style="--darkreader-inline-fill:var(--darkreader-background-b9b5b2, #42474a)"/>
  <path fill="#8ca5db" d="M364.5 34.5a7 7 0 0 1-2 2.5l1 5a9 9 0 0 0-1.5 8.5l1-2 1.5 5.5q-.5 1.5-2 1.5l3 2q-.3.8-1 1.5 1.5 4.4 2 8l-1 .5q-1.2-1.8-1.5-4-.5 2.4-1.5 4.5 2 .8 4 .5.6 6.5 2.5 1 2 3.6 3 0 .6.9 1.5 1-3 3.3-5 7.5.5 1.5 2 1.5-1.1 1.2-2.5 2-1.1-1.4-2.5-.5 1.8 1 0 1.5-3-3.3-5.5-7l-2.5-7.5q3.5-2.8 0-5 0-2.2 1-5l-.5-2.5q-1.4 1.8-2.5-.5l1-1-2-9.5a7 7 0 0 1 4-3.5q-.9-.6-1-1.5l1-2z" style="--darkreader-inline-fill:var(--darkreader-background-8ca5db, #22396c)"/>
  <path fill="#655e5b" d="M120.5 46.5a127 127 0 0 0-15 17.5l-10 1.5q10-12.7 25-19" style="--darkreader-inline-fill:var(--darkreader-text-655e5b, #aba499)"/>
  <path fill="#c2c8e3" d="M384.5 26.5q2.5 1 4 3.5l-1 1q3.9 4.7 9 7.5.2 6.8-1.5 14a18 18 0 0 1-8.5 2.5q.8 2 0 4.5-5.5-.3-10 3-1.2-.4-2-1.5 2-3.9-.5-8.5-1-2-2 0l-1-2a62 62 0 0 0-1.5-10.5q.3-3 0-6a7 7 0 0 0 4-3.5v-1q1.3-1 3-1 3.5-2 8-2" style="--darkreader-inline-fill:var(--darkreader-background-c2c8e3, #313537)"/>
  <path fill="#cfd1e3" d="M376.5 28.5a24 24 0 0 1 9 3q1.8 1.2 0 2.5 2 3.2 5 3-3.6 1.6 1 1.5 2 3.6-1 6-1.2 4.5-1.5 9l-1-1-9 2q-.5-4.5-2-1a98 98 0 0 0-1.5-16.5 8 8 0 0 0 0-5q3.4-1 1-3.5" style="--darkreader-inline-fill:var(--darkreader-text-cfd1e3, #bdc8d9)"/>
  <path fill="#181f7a" d="M326.5 54.5q-.3 5.8 1 11.5-2.2 9.3-3 19 .2 2.9 2 5-2 .8-4 .5v4q-1.5 10-1 20h-3q.3 8.4-3 16-4.5-4-5.5-10-1-3 0-6 .7-.7 1.5-1 .6-8.3 3-16a9 9 0 0 1-2-7q-3-.4-4.5 2-1.6-5.7 2-10a165 165 0 0 1 2.5-22q2.2.5 4-1 .5-7.2-2.5-14 4.5 6 9 0-.6 6.6.5 13a7 7 0 0 1 3-4" style="--darkreader-inline-fill:var(--darkreader-background-181f7a, #131962)"/>
  <path fill="#6c8bd3" d="M353.5 42.5a37 37 0 0 0 1 19.5 53 53 0 0 0 1 22q-2.2 10.2-6 19.5.3-2-1-3a75 75 0 0 0 3.5-24l-1 4a37 37 0 0 0-4.5-19q2 .7 3-2a15 15 0 0 1-3-5.5q2-2 0-3.5 2.5-5 7-8" style="--darkreader-inline-fill:var(--darkreader-background-6c8bd3, #26417f)"/>
  <path fill="#141f76" d="M426.5 51.5a50 50 0 0 1 15 4q.8-.3 1.5-1a29 29 0 0 1 5 4q3.4-1.2 4 3 1-1.3 2.5-2 1.7 1.7-1 2.5l4 2.5q-.3.8-1 1.5 2.4.4 4.5 1.5 1.8 6.4 5.5 12v1a78 78 0 0 0 1 14.5q-2 7.5-2 15.5h-5a8 8 0 0 1-4 5.5q3.5 8.3 5-1.5h4v9h-3q.6 3.8-2 6.5l1 1q-3 3-3.5 7.5-3 1.8-4.5 5a5 5 0 0 0-3 3q-3.9-2.5 0-5.5a13 13 0 0 1-1-5.5 7 7 0 0 0 .5-6 25 25 0 0 1-5.5-15 30 30 0 0 0 4.5 6l1.5-1q-3-2.6-1-6a64 64 0 0 1-6.5-7q-2.2-9.4-3.5-19 2.8-6.7-2-12a17 17 0 0 0-3-16q3.8-2.2 0-4.5-4-.8-8-.5z" style="--darkreader-inline-fill:var(--darkreader-background-141f76, #10195e)"/>
  <path fill="#1c2568" d="M318.5 38.5a55 55 0 0 1-4 5.5 26 26 0 0 0-7.5 5.5q-.5 5-5 8a4 4 0 0 0 1 5q2.7-4 3.5 1a54 54 0 0 0-4 15.5q.7 13.7-1.5 27.5-1.1-9 .5-18l-3-8q1.5-4 .5-8l-3-1-1 3a109 109 0 0 1-2.5 20q.6 8.7 3 17-.6 4.5-5 5.5.7 6.3 5.5 10.5a7 7 0 0 0 3-3q3.6 2.2 1.5 5.5-1.5 1-2.5-.5-1.5.8-2.5 2a18 18 0 0 1-5-10 15 15 0 0 1 0-10 33 33 0 0 1-3-12q3-11.7 4.5-24a52 52 0 0 0 4.5-12 50 50 0 0 1 22-25" style="--darkreader-inline-fill:var(--darkreader-background-1c2568, #161e53)"/>
  <path fill="#a2b9e3" d="M366.5 33.5q-.7 3.8-2 7.5 1.8 5.5 2.5 11.5 2.7 7.5 7 14a7 7 0 0 1 4.5-1q-2 3-5 5-.9-.1-1.5-1-1 3.6-3 0-1.8 5.5-2.5-1-2 .3-4-.5 1-2.1 1.5-4.5.3 2.2 1.5 4l1-.5q-.5-3.6-2-8 .7-.7 1-1.5l-3-2q1.5 0 2-1.5l-1.5-5.5-1 2q-1.5-4.8 1.5-8.5l-1-5a7 7 0 0 0 2-2.5q.5-1.2 2-1" style="--darkreader-inline-fill:var(--darkreader-background-a2b9e3, #1d345f)"/>
  <path fill="#deccba" d="M201.5 69.5q.2-4.6 5-5.5-.6-5.4-5-10a5 5 0 0 0-3-.5v-3q-7.6-3-15-7.5a114 114 0 0 0-37-5.5 9 9 0 0 1 4-1.5q8-1 16 0a61 61 0 0 1 47 29.5l-8 .5a20 20 0 0 1-4 3.5" style="--darkreader-inline-fill:var(--darkreader-background-deccba, #4c3824)"/>
  <path fill="#5074c3" d="M393.5 56.5q-1 3.4-4 5.5l2 3a8 8 0 0 0-.5 6.5l1-5 2 16q5.1 11.3 9 23 1.6 2.9 4 2 2.5 5.4 7 9 3 5.2 5 11a7 7 0 0 1 4.5-5v2l-3 5q-2 2-3-1-1 .8-1.5 2-3.5-8.4-8-16l-1 1a24 24 0 0 0-10.5-11q.5-7.4-4-14 1.7-2.2-1.5-3-3-9.6-6.5-19a7 7 0 0 1 4-3.5 4 4 0 0 1-2-4.5v-1q3.6-1.2 7-3" style="--darkreader-inline-fill:var(--darkreader-background-5074c3, #314e8f)"/>
  <path fill="#142677" d="M410.5 52.5v-1h16v3q4-.3 8 .5 3.8 2.3 0 4.5 2.1 2.5 3 5.5 1.5 4.8 0 10.5 4.8 5.3 2 12 1.3 9.6 3.5 19 3 3.7 6.5 7-2 3.4 1 6l-1.5 1a30 30 0 0 1-4.5-6 25 25 0 0 0 5.5 15q1.2 3.3-.5 6a390 390 0 0 0-15.5-31l-1-6q-.6 3-2.5 5a9 9 0 0 1 1 5q-4 0-4-4a80 80 0 0 0-4-30q-.7-4.2-4.5-8-1.5-8-7.5-13 0-1-1-1" style="--darkreader-inline-fill:var(--darkreader-background-142677, #101e5f)"/>
  <path fill="#192e7f" d="M337.5 54.5q-.9 2 0 3 1-3.9 4-2v2a20 20 0 0 0-5 9 60 60 0 0 0-7.5 24q-1.2 9.7.5 19 0 4 1 8-3.3 6-3 13h-3q-.3 3 .5 6 1.5-1.8 1.5 1-.9 3-3 5-.7-5.6-3-11a3 3 0 0 1 3-1q-.7-4.7-1-9.5 2-13 2-26-1-.7-2-.5v-4q2 .3 4-.5a8 8 0 0 1-2-5q.8-9.7 3-19-1.3-5.7-1-11.5l1-12 2-8q1.9-1.7 4-.5l-3 12.5q1.8 6 2.5 12 2.3-1 4.5-4" style="--darkreader-inline-fill:var(--darkreader-background-192e7f, #142566)"/>
  <path fill="#6184cd" d="M386.5 60.5q-.4 3 2 4.5a7 7 0 0 0-4 3.5q3.5 9.4 6.5 19 3.2.8 1.5 3 4.5 6.6 4 14l-2 2a198 198 0 0 0-12.5-30q-1-4.5-2.5-9 2-1.7 3-4a5 5 0 0 1 4-3" style="--darkreader-inline-fill:var(--darkreader-background-6184cd, #2a4886)"/>
  <path fill="#1a2471" d="m327.5 42.5-1 12a7 7 0 0 0-3 4q-1.2-6.4-.5-13-4.5 6-9 0 3 6.8 2.5 14a5 5 0 0 1-4 1 165 165 0 0 0-2.5 22 10 10 0 0 0-2 10q1.5-2.4 4.5-2-.5 4 2 7a76 76 0 0 0-3 16q-.8.3-1.5 1-1 3 0 6 1 6 5.5 10a36 36 0 0 0 3-16h3q-.5-10 1-20 1-.2 2 .5 0 13-2 26 .3 4.8 1 9.5a3 3 0 0 0-3 1q2.3 5.4 3 11-.6 2.5-3 3-3.7-1.7-8-2.5-8.8-5.6-17-11.5 1-1.2 2.5-2 1.1 1.4 2.5.5 2.1-3.3-1.5-5.5a7 7 0 0 1-3 3q-4.8-4.2-5.5-10.5a6 6 0 0 0 5-5.5 85 85 0 0 1-3-17 109 109 0 0 0 2.5-20l1-3 3 1q.9 4-.5 8l3 8q-1.5 9-.5 18a137 137 0 0 0 1.5-27.5 54 54 0 0 1 4-15.5q-.8-5-3.5-1a4 4 0 0 1-1-5q4.5-3 5-8 3.3-3.5 7.5-5.5 2.2-2.7 4-5.5l8-3q.7 3.4 1 7" style="--darkreader-inline-fill:var(--darkreader-background-1a2471, #151d5a)"/>
  <path fill="#6c97d7" d="M357.5 39.5q.1.9 1 1.5a7 7 0 0 0-4 3.5l2 9.5-1 1q1.2 2.3 2.5.5l.5 2.5q-1 2.8-1 5 3.5 2.2 0 5 1.4 3.7 2.5 7.5 2.5 3.7 5.5 7 1.8-.4 0-1.5 1.5-1 2.5.5 1.5-.8 2.5-2-1.5 0-2-1.5 2-4.2 5-7.5 3-2 5-5a7 7 0 0 1 4-2q-1 2.3-3 4 1.5 4.5 2.5 9 7.5 14.4 12.5 30-1 .6-1.5 2-.6-5.5-4-10-1.1 1.4-2.5.5-3-5.2-5.5-10.5-.7 1-.5 2-2.4-2-1.5-5l1 1q1-1.5 0-3a52 52 0 0 1-6.5-4q-1.2 2.5-3.5 4-2.3.6-5 0l-2 2q-1.2-3.4-2-7-.2 7.8 1.5 15.5a7 7 0 0 1-2 5.5v3q-1.5-4-6-5-.3 4.8-3 9l-2-2v-1q3.8-9.3 6-19.5a53 53 0 0 1-1-22 37 37 0 0 1-1-19.5z" style="--darkreader-inline-fill:var(--darkreader-background-6c97d7, #234880)"/>
  <path fill="#4a61be" d="M402.5 54.5q.8 4 .5 8l-1-2q-1 3.8.5 7.5a27 27 0 0 1-2 4.5q3.4 3.6 1 8 2.8 2.9 2 6-.4 5 2 9a3 3 0 0 1-1 3l-1-1a31 31 0 0 0-8.5-19q-1-1.5 0-3 .6 2.3 2.5 1.5-2.3-6-4-12.5h3v-4a3 3 0 0 1-3-1q4-3.3 9-5" style="--darkreader-inline-fill:var(--darkreader-background-4a61be, #344792)"/>
  <path fill="#323ba4" d="M411.5 53.5q6 5 7.5 13 3.8 3.8 4.5 8a80 80 0 0 1 4 30h-1l-2 1-5-3q-1.8-2.9 1-5-2.6-3-3.5-7l-1 4a93 93 0 0 1-6-12 592 592 0 0 1-4.5-27 7 7 0 0 1 6-2" style="--darkreader-inline-fill:var(--darkreader-background-323ba4, #282f83)"/>
  <path fill="#202658" d="M296.5 63.5a52 52 0 0 1-4.5 12q-1.5 12.3-4.5 24 .3 6.3 3 12a15 15 0 0 0 0 10 36 36 0 0 1-3.5-11 81 81 0 0 1 6-42q1-3.1 3.5-5" style="--darkreader-inline-fill:var(--darkreader-background-202658, #1a1e46)"/>
  <path fill="#557bcf" d="M346.5 50.5q2 1.5 0 3.5.9 3 3 5.5-1 2.7-3 2a37 37 0 0 1 4.5 19l1-4q.2 12.3-3.5 24-1-.6-1.5-2a33 33 0 0 0-3 7h-3.5a120 120 0 0 1-4 14q-1.9.3-3.5 0a8 8 0 0 1-.5-4q4.8-4.5 4.5-11-1.2 3.9-1.5 0 .7-4 2-8 .4 2.7.5 6a49 49 0 0 0 5-18l1.5-14q-2-6.4-3-13v-2a28 28 0 0 1 5-5" style="--darkreader-inline-fill:var(--darkreader-background-557bcf, #28488e)"/>
  <path fill="#6da1d9" d="M380.5 90.5a19 19 0 0 1 2 8 13 13 0 0 1-4-8 34 34 0 0 0-9 4q-.8-.3-1.5-1-3.7 4.5-6 10a9 9 0 0 0-1.5-4 7 7 0 0 0 2-5.5 67 67 0 0 1-1.5-15.5q.8 3.6 2 7l2-2q2.7.6 5 0 2.3-1.5 3.5-4 3 2.2 6.5 4 1 1.5 0 3l-1-1q-.9 3 1.5 5" style="--darkreader-inline-fill:var(--darkreader-text-6da1d9, #70aada)"/>
  <path fill="#eccba6" d="M219.5 78.5q-.4 5.3-.5 11-.9-4.8-3-1-2-.1-4-1l-1 3q-1.7-7.6-3.5.5 1.5 1.5.5 3.5-5.9 3.3-1.5 8.5-2.7 1.2-4.5 3.5A18 18 0 0 1 191.5 95l1-1q-1.6-1-3-2.5-4.6 2-6 5.5l1 1-2 8a6 6 0 0 1 2.5 4.5q4.2 1.7 6.5 5.5a5 5 0 0 0-1.5 4.5l1-1q3.8 2.3 7.5 5 2 4.2 4.5 8 .4 5-2.5 9h-1a181 181 0 0 1-12.5 2q-7 .5-8.5-6-2.2-.5-4 1-1.2 3.8-3 7.5l5 6q-.8 1-2 1.5a68 68 0 0 1-10-4.5q-4.5-1.3-8 2 4 4.2-2 6 5.9.9 0 2.5.2 1 1 1 11.5 22.2 36 15 4.2 1 8.5-1 1.6 1.4 2.5 3-1.5 5-7 8a3 3 0 0 0-1 3h-1q-11 1.8-22 2.5l2 1a12 12 0 0 1-8 1 42 42 0 0 1-14-7q3.3-1.8 3-5.5 2.2.5 4-1-5-1.2-10-1.5 1.3-1 2-2.5l-5-1-7 1.5q-1-2.7-1-5-6.3.6-7.5-5.5l-1 1q-3-5.5-8.5-3 1.8 6.3 2.5 13 1.8-1.2 3.5 1-1.6 2.2-3 4.5 6 1 12 4.5a7 7 0 0 0 5 5.5 30 30 0 0 1-21 2.5q-5.7-7.2-11-14.5a4 4 0 0 0 1-2 90 90 0 0 1-8.5-30.5q-.4 1.4-1.5 2v-3h-3q-4 .3-7 3-3.6-2.5-8-4-1.2-3-4-4.5l1-1-4-1 1-1a33 33 0 0 1-3-9.5q2.4-1.2 5-2 1.8 4.2 4 8 1.3 1 1 3 0 .8 1 1 1.5-4.5 1-9 0-5.3 5-3.5 2.5 3 4 6.5 0 .8 1 1l2-5.5q6-.3 12-1.5 1.5-4.5 2-9a115 115 0 0 0-3-16q.5-6 2-12 .5-1.7 2-2.5-1.1-1-1-2.5 0-1.8 2-2.5-2-3.6 1-6.5-1.8-2 1-3-1.2-1.5-.5-3 1-2 2 0a68 68 0 0 1 25.5-20q2.7-1 2-3 1.5.7 2.5 2 4.1-3.4 9.5-4 4.6 3.4 10 1a23 23 0 0 0 18.5 0q4 1.8 7 5l1-1q2.4 1.8 5.5 2.5-2.2.6-1.5 2.5 3.8 1 6.5 4-4.2 4.5-8 9.5l1 1q-1.2 2.2-2 4.5 5.5 1 11.5 3l6.5-2q1 .8 1.5 2 1.5-1.2 3.5.5l-1 1q2 2 4 .5" style="--darkreader-inline-fill:var(--darkreader-background-eccba6, #5f3c14)"/>
  <path fill="#e5cbb1" d="M136.5 66.5q10.2-1.2 19 3.5 3.7 5.3-2 9-3.2-.3-6.5-1.5-3.2-.1-5.5 2-1.4 6.2-4.5 10l-5.5 2q-1.8-2.4-4-1a9 9 0 0 0-4.5-4q-1.2-3.3 1.5-5.5-2-2.1 1-3l-1-1q8.5-3.4 12-10.5" style="--darkreader-inline-fill:var(--darkreader-background-e5cbb1, #55391c)"/>
  <path fill="#2f221d" d="M145.5 68.5q8.3-1 9 7-8-.8-15 2.5-5.4 4.6-9 10.5a10 10 0 0 1 1.5-10 28 28 0 0 1 13.5-10" style="--darkreader-inline-fill:var(--darkreader-text-2f221d, #d0ccc6)"/>
  <path fill="#b7b3b0" d="M103.5 73.5q-27.7 5.1-26 33 0 .8-1 1-6.8-24.7 16-35.5 5.3-1.8 11-1.5z" style="--darkreader-inline-fill:var(--darkreader-background-b7b3b0, #43484b)"/>
  <path fill="#686463" d="M103.5 73.5q.4 13.5-2 27 .6 8.3 2 16.5l-1 2.5q-6-18.7-25-13-1.7-27.9 26-33" style="--darkreader-inline-fill:var(--darkreader-background-686463, #4c5356)"/>
  <path fill="#3d4cb1" d="M406.5 52.5h4q1 0 1 1-3.5-.4-6 2a592 592 0 0 0 4.5 27 93 93 0 0 0 6 12l1-4q1 4 3.5 7-2.8 2.1-1 5 2.8 1.5 5 3-1.5 3.8-2.5 0l-1 4q-2.5-2.7-4-6l-1 2q-4.5-7.7-8-16l-2.5-3q-1.5-1.5-2 0 .8-3.1-2-6 2.4-4.4-1-8a27 27 0 0 0 2-4.5q-1.5-3.7-.5-7.5l1 2q.3-4-.5-8z" style="--darkreader-inline-fill:var(--darkreader-background-3d4cb1, #313d8e)"/>
  <path fill="#486cc6" d="M341.5 57.5q1 6.6 3 13l-1.5 14a49 49 0 0 1-5 18q0-3.3-.5-6-1.3 4-2 8 .3 3.9 1.5 0 .3 6.5-4.5 11-1.2.5-1 2h-1q-1-4-1-8 1.8-7.2 2.5-15l1 10 2.5-12.5q-1.3-3.4 2-6a4 4 0 0 1-1-2q2-.1 2-3a38 38 0 0 1-2-14.5 20 20 0 0 1 5-9" style="--darkreader-inline-fill:var(--darkreader-background-486cc6, #2e4c95)"/>
  <path fill="#425ebc" d="M336.5 66.5a38 38 0 0 0 2 14.5q0 2.9-2 3a4 4 0 0 0 1 2q-3.3 2.6-2 6l-2.5 12.5-1-10a92 92 0 0 1-2.5 15 61 61 0 0 1-.5-19q1.2-12.9 7.5-24" style="--darkreader-inline-fill:var(--darkreader-background-425ebc, #354b96)"/>
  <path fill="#19216a" d="M466.5 80.5a71 71 0 0 1 1.5 35q-.4 4.4-2.5 8v-9h-4q-1.5 9.8-5 1.5 3.3-1.8 4-5.5h5q0-7.9 2-15.5a78 78 0 0 1-1-14.5" style="--darkreader-inline-fill:var(--darkreader-background-19216a, #141a55)"/>
  <path fill="#5694ce" d="m394.5 106.5 2.5 7q1.5 1.3 3.5 1-.5 4.4 4 4.5-2.8 1.2-1 3.5 1.5 3.8 2.5 0 4.5 7.5 6.5 16h3q2 1 0 2h-4q-3-6.7-7-13-1.2-1.8-2.5 0-2.5-6.7-6-13-2.2-1.5-4.5-2.5 1.2-1.8-1-3.5-1.5 1.6-2.5 0a15 15 0 0 0-5.5-10 19 19 0 0 0-2-8q-.2-1 .5-2 2.5 5.3 5.5 10.5 1.5 1 2.5-.5 3.4 4.5 4 10 .5-1.4 1.5-2" style="--darkreader-inline-fill:var(--darkreader-background-5694ce, #295d8d)"/>
  <path fill="#371615" d="M70.5 113.5q-1.2 2.7-3 5v-4q5-12.7-5-4 .8-2.4 1-5 2.6-.2 4.5-2 4 .8 4.5 5z" style="--darkreader-inline-fill:var(--darkreader-text-371615, #d0ccc6)"/>
  <path fill="#e4caaf" d="M168.5 104.5h3q-.3 4.5.5 9 2.4 2-.5 4a26 26 0 0 1-21.5 1q0-3.7-2.5-7.5a3.5 3.5 0 0 1 3-3q-6.2-5.1 1-9-.8-7.2 5.5-11.5l5.5.5q3.1 2.8 7.5 3.5-.7 4-2.5 8a5 5 0 0 0 2 3.5q-.9.6-1 1.5" style="--darkreader-inline-fill:var(--darkreader-background-e4caaf, #563a1d)"/>
  <path fill="#3653b0" d="m424.5 105.5 2-1v5q-.9.1-1.5 1-.8 4.5-.5 9a8 8 0 0 1-6 3q-.2-2 1-3.5-3.9-4.3-6.5-9.5-.4-4.2-2-8-.7.7-1.5 1l-4-7a15 15 0 0 1-2-9q.5-1.5 2 0l2.5 3q3.5 8.3 8 16l1-2q1.5 3.3 4 6l1-4q1 3.8 2.5 0" style="--darkreader-inline-fill:var(--darkreader-background-3653b0, #2b428d)"/>
  <path fill="#4567bb" d="m406.5 52.5-4 2a28 28 0 0 0-9 5 3 3 0 0 0 3 1v4h-3q1.7 6.4 4 12.5-1.8.8-2.5-1.5-1 1.5 0 3a31 31 0 0 1 8.5 19l1 1a3 3 0 0 0 1-3l4 7q.8-.3 1.5-1 1.6 3.8 2 8 2.7 5.1 6.5 9.5-1.2 1.5-1 3.5a8 8 0 0 0 6-3q.3 2-1 3a7 7 0 0 0-4.5 5q-2-5.8-5-11-4.5-3.6-7-9-2.4.9-4-2-3.9-11.7-9-23l-2-16-1 5a8 8 0 0 1 .5-6.5l-2-3q3-2 4-5.5 6-3.8 13-4" style="--darkreader-inline-fill:var(--darkreader-background-4567bb, #365295)"/>
  <path fill="#103482" d="M449.5 135.5q0 2.8 1 5.5-3.9 3 0 5.5a5 5 0 0 1 3-3l-1 4-1 2q-3 0-4.5-3l-2-10q-5.7-12.5-13-24h-4l-1 2a13 13 0 0 1-.5-5v-5h1q0 4 4 4 .2-2.7-1-5 2-2 2.5-5l1 6a390 390 0 0 1 15.5 31" style="--darkreader-inline-fill:var(--darkreader-background-103482, #0d2a68)"/>
  <path fill="#291f18" d="M168.5 104.5q4.6 6.9-2 11.5-6 1-12 0-4.8-1.5-4-6.5a32 32 0 0 0 14.5 0q-1.3-6-4-12a7 7 0 0 1 0-5 37 37 0 0 0 7.5 12" style="--darkreader-inline-fill:var(--darkreader-text-291f18, #d3d0ca)"/>
  <path fill="#5ba1d4" d="M382.5 98.5q4.6 3.7 5.5 10 1.1 1.6 2.5 0 2.2 1.6 1 3.5 2.3 1 4.5 2.5 3.5 6.3 6 13 1.3-1.8 2.5 0 4 6.3 7 13h4a7 7 0 0 0-1 4q-3 2-5 5l-3-2.5q.7-2.6.5-5.5 1 1.8 1.5 0a15 15 0 0 1-7.5-10 7 7 0 0 0-3.5-2.5 4 4 0 0 0 1-2 52 52 0 0 1-3.5-7.5q-1 6-2 0a10 10 0 0 0-2.5-1.5q1.7-1.1 0-2.5-3.4-1-5.5-4-2.8-7.2-6.5-14l-1.5-1a18 18 0 0 1-8.5 2.5q-.7 4.1 0 8.5v2q-1.2-2.7-1.5-6-1.3 4-5 8-.9-3.7-2.5-5a7 7 0 0 1 1-4v-3a9 9 0 0 1 1.5 4q2.3-5.5 6-10 .7.7 1.5 1a34 34 0 0 1 9-4q.6 4.8 4 8" style="--darkreader-inline-fill:var(--darkreader-background-5ba1d4, #24608b)"/>
  <path fill="#45b6da" d="M386.5 122.5a19 19 0 0 1-3 5l-2 1q.2-2.4-2-3.5l2-2a36 36 0 0 1-3.5-4.5 20 20 0 0 0-3.5 4q-3.3-3.4-6 0-1.8-1.2 0-2.5-1-1-2 0a67 67 0 0 0-3 8.5q-1.5-1.2-3-.5.9 2.4-1.5 4.5-.5 3.8-1.5 7.5.6 1.8 1.5 3.5 1.5-2 2.5 0-1 0-1 1l-8 2q-1.5-2.2 1-4-1.7-5 .5-10 1.7 1.7 2.5-1-5.8-.6-2-6 1.8 1.2 3 3l1-1q-1.7-3.3 1-6.5-1.7-1.5 1-2-1.8-2.9 1.5-4.5l1 3q2.7-3.1 4-7 1.6 3.6 1.5-1v-2q1.2 1.2 1.5 3a27 27 0 0 0 7.5-4l3.5 7q1.5 1.3 3.5 1 .5 4.3 2 8" style="--darkreader-inline-fill:var(--darkreader-background-45b6da, #1f7c9a)"/>
  <path fill="#d3baa3" d="m108.5 72.5 2 12q-.1 1.5 1 2.5-1.5.8-2 2.5-1.5 6-2 12a115 115 0 0 1 3 16q-.5 4.5-2 9-6 1.2-12 1.5l-2 5.5q-1-.2-1-1 2.7-15.3-13-13 .1-1.5-1-2.5l2-2q5-.8 10-.5 1.5-.1 2.5 1 3 5 3.5 11 4 .3 8-.5 2.1-1.6 3-4-2.4-9.8-3-20 2.4-14.7 3-29.5" style="--darkreader-inline-fill:var(--darkreader-background-d3baa3, #5a412b)"/>
  <path fill="#2f1f19" d="M93.5 132.5q-1.5-3.6-4-6.5-5-1.8-5 3.5l-2 8q.3-2-1-3 .5-5.6-1-11-1.5.7-2.5 2-1.4-4.2 2.5-6 15.7-2.3 13 13" style="--darkreader-inline-fill:var(--darkreader-text-2f1f19, #d1cdc7)"/>
  <path fill="#3891cb" d="M360.5 102.5a7 7 0 0 0-1 4q-3.2 4-5.5 9-.7-.7-1.5-1-1.5 3.4-2.5 7l-1-1q-1 5.4-1.5 11 .2 3.2 2 5.5 0 1.8-1 4 2 .1 2 3a11 11 0 0 1-1 3.5h-5a54 54 0 0 1-8-15q3.9-.3 0-1.5 1.8-.7 2.5-2.5 2.5-6.3 4-13l1 6q3-8.5 5.5-17l2 2q2.7-4.2 3-9 4.5 1 6 5" style="--darkreader-inline-fill:var(--darkreader-background-3891cb, #2a71a0)"/>
  <path fill="#e1c8b5" d="M91.5 114.5q-5-.3-10 .5l-2 2q1.1 1 1 2.5-4 1.8-2.5 6 1-1.3 2.5-2 1.5 5.4 1 11a70 70 0 0 1-4-8q-2.6.8-5 2a33 33 0 0 0 3 9.5l-1 1 4 1-1 1q2.8 1.5 4 4.5 4.4 1.5 8 4 3-2.7 7-3-6.3 8-15 2.5a26 26 0 0 1-9-28.5q3.2-3.9 7-7.5 6.8-3.4 12 1.5" style="--darkreader-inline-fill:var(--darkreader-background-e1c8b5, #513521)"/>
  <path fill="#3b81c8" d="M348.5 100.5q1.3 1 1 3v1q-2.6 8.5-5.5 17l-1-6q-1.5 6.7-4 13-.7 1.8-2.5 2.5 3.9 1.2 0 1.5-3-5.3-5-11v-4q-.2-1.5 1-2-.3 2 .5 4 1.5.3 3.5 0a120 120 0 0 0 4-14h3.5q1-3.7 3-7 .5 1.4 1.5 2" style="--darkreader-inline-fill:var(--darkreader-background-3b81c8, #2c649d)"/>
  <path fill="#3f1311" d="m56.5 117.5-6 10-10 15q3.3-9 7.5-18 4.5-3.4 8.5-7" style="--darkreader-inline-fill:var(--darkreader-text-3f1311, #cfcbc4)"/>
  <path fill="#0d4690" d="M426.5 109.5a13 13 0 0 0 .5 5l1-2h4q7.3 11.5 13 24l2 10q1.4 3 4.5 3a58 58 0 0 1-9 9h-2a51 51 0 0 0 0-10q-4 .1-2-3-5.1-12.2-12.5-23-.6 2-2.5 2v-2q1.3-1 1-3-.3-4.5.5-9 .6-.9 1.5-1" style="--darkreader-inline-fill:var(--darkreader-background-0d4690, #0a3873)"/>
  <path fill="#a63635" d="M67.5 114.5q-5.5 12.6-1 26-4.2-4-4-10 1.4-8.6 3-17-1.5-.2-3 .5-5.8 7-12 13.5l6-10q4-2.5 6-7 10-8.7 5 4" style="--darkreader-inline-fill:var(--darkreader-background-a63635, #852b2a)"/>
  <path fill="#441414" d="M253.5 142.5v3q-5.3-9.3-10.5-19a31 31 0 0 0-8.5-10l-3-4q-1 .8-1.5 2-.8 8-.5 16-1.6 17.5-8.5 34a7 7 0 0 1-2.5 2q9-21.5 9-45l2-9 2-1q2.4 1.2 4 3.5 1.5.7 3 .5 2 6 7 10 3 9.2 8 17" style="--darkreader-inline-fill:var(--darkreader-background-441414, #361010)"/>
  <path fill="#7b2c2b" d="M234.5 116.5q-2.4-.2-3.5 2-.3 6.3-1.5 12-.3-8 .5-16 .5-1.2 1.5-2z" style="--darkreader-inline-fill:var(--darkreader-text-7b2c2b, #d48483)"/>
  <path fill="#33c1dd" d="M381.5 128.5a56 56 0 0 1-20 15q-1-2-2.5 0-.9-1.7-1.5-3.5 1-3.7 1.5-7.5 2.4-2.1 1.5-4.5 1.5-.7 3 .5 1.2-4.5 3-8.5 1-1 2 0-1.8 1.3 0 2.5 2.7-3.4 6 0 1.5-2.2 3.5-4 1.5 2.3 3.5 4.5l-2 2q2.2 1 2 3.5" style="--darkreader-inline-fill:var(--darkreader-text-33c1dd, #44c6e0)"/>
  <path fill="#447ec0" d="M396.5 104.5a24 24 0 0 1 10.5 11l1-1q4.5 7.6 8 16 .5-1.2 1.5-2 1 3 3 1 .4 3.6-2 6-2.4.5-3 3h-3q-2-8.5-6.5-16-1 3.8-2.5 0-1.8-2.3 1-3.5-4.5-.1-4-4.5-2 .3-3.5-1l-2.5-7z" style="--darkreader-inline-fill:var(--darkreader-background-447ec0, #336196)"/>
  <path fill="#a63535" d="M234.5 116.5a31 31 0 0 1 8.5 10q5.2 9.7 10.5 19v2q-5.4-8-11.5-16l-1-4q-3.6-3-6.5-7a3 3 0 0 0-3-1 138 138 0 0 1-4.5 34 30 30 0 0 0-3 12q-1.4 2.2-3.5 4a5 5 0 0 0-1 4 9 9 0 0 0-.5 7q7.2 5.7 13.5 12.5 4.8 1.4 6 6.5l-18-15a31 31 0 0 0-4.5-5l-.5-3q1-4.6 3-9v-1a7 7 0 0 0 2.5-2q6.9-16.5 8.5-34 1.2-5.7 1.5-12a3 3 0 0 1 3.5-2" style="--darkreader-inline-fill:var(--darkreader-background-a63535, #852a2a)"/>
  <path fill="#0f3e84" d="M330.5 117.5h1v4a70 70 0 0 1-3 18q1.5 1.4 2 3.5-.9 2.3 0 4-1 .7-2 .5-3.1-1.5-7-1-1 0-1-1 2.4-.5 3-3 2.1-2 3-5 0-2.8-1.5-1-.8-3-.5-6h3q-.3-7 3-13" style="--darkreader-inline-fill:var(--darkreader-text-0f3e84, #82bbf1)"/>
  <path fill="#36a2cf" d="M368.5 109.5q0 4.6-1.5 1-1.3 3.9-4 7l-1-3q-3.3 1.6-1.5 4.5-2.7.5-1 2-2.7 3.2-1 6.5l-1 1a9 9 0 0 0-3-3q-3.8 5.4 2 6-.8 2.7-2.5 1a14 14 0 0 0-.5 10q-2.5 1.8-1 4v1h-3q.8-1.5 1-3.5 0-2.9-2-3 1-2.2 1-4a9 9 0 0 1-2-5.5q.5-5.6 1.5-11l1 1q1-3.6 2.5-7 .8.3 1.5 1 2.4-5 5.5-9 1.6 1.3 2.5 5 3.7-4 5-8 .3 3.3 1.5 6" style="--darkreader-inline-fill:var(--darkreader-background-36a2cf, #277ea2)"/>
  <path fill="#202764" d="M465.5 123.5a44 44 0 0 1-13 24l1-4q1.4-3.2 4.5-5 .4-4.4 3.5-7.5l-1-1q2.6-2.7 2-6.5z" style="--darkreader-inline-fill:var(--darkreader-text-202764, #9cb7df)"/>
  <path fill="#085995" d="M331.5 121.5q2 5.7 5 11a54 54 0 0 0 8 15q-2 1.5-5 1h-11v-1q1 .2 2-.5-.9-1.7 0-4-.5-2-2-3.5a70 70 0 0 0 3-18" style="--darkreader-inline-fill:var(--darkreader-text-085995, #75c1f8)"/>
  <path fill="#5db1da" d="m409.5 149.5-1 2-4 3q-1 .2-2-.5 1.2-2.5-1.5-.5a68 68 0 0 1-2-13l-1 2q-5.1-8.7-9-18l-1 3a13 13 0 0 0-1.5-5q-1.5-3.7-2-8-2 .3-3.5-1l-3.5-7a27 27 0 0 1-7.5 4 6 6 0 0 0-1.5-3q-.7-4.5 0-8.5 4.6-.2 8.5-2.5l1.5 1q3.6 6.8 6.5 14 2 3 5.5 4 1.7 1.5 0 2.5 1.5.6 2.5 1.5 1 6 2 0 1.5 3.9 3.5 7.5a4 4 0 0 1-1 2 7 7 0 0 1 3.5 2.5q1.7 6.6 7.5 10-.5 1.8-1.5 0 .2 3-.5 5.5z" style="--darkreader-inline-fill:var(--darkreader-background-5db1da, #20688b)"/>
  <path fill="#7c6a54" d="M84.5 129.5q.5 4.5-1 9-1-.2-1-1z" style="--darkreader-inline-fill:var(--darkreader-text-7c6a54, #a69f93)"/>
  <path fill="#83daf2" d="M383.5 127.5q0 1.9 2 2.5-4 3.5 1 1.5 1.5 1.2 2 3-1.8-.6-2.5 2-2.5-1.2-.5 1.5-3 2.3 0 5.5 1.2-1.8 1.5-4 5 5 3.5 10.5 3 2 4 5.5-2 3.5 1 6 1.5-2 4-2l-1 2q-6.2 3.5-12 7.5-3.4 1.5-7 1.5.8-1.8 2-3.5 2.9-.3 5-2-1.8-6-5-11.5 4-4.4-1-7.5 2.6-11.7-7-4.5a19 19 0 0 1-13 3q0-1 1-1a56 56 0 0 0 20-15z" style="--darkreader-inline-fill:var(--darkreader-background-83daf2, #0d6179)"/>
  <path fill="#127fb5" d="M418.5 135.5q1 4.4 2.5 1 1 3.8 2.5 0 1.5 9 6 17.5-1.5.6-2 2a27 27 0 0 0 2 4.5 5 5 0 0 0-.5 5 30 30 0 0 1 8.5-3q-.6-3.7 3-4h2a22 22 0 0 1-7 6.5q-9 5.2-18 9.5h-5q2.7-1.7 6-2.5a7 7 0 0 1 0-6.5l5-2-6-16q.8-1 2-1.5l-3.5-3.5q-.5 1.4-1.5 2a7 7 0 0 1 1-4q2-1 0-2 .6-2.5 3-3" style="--darkreader-inline-fill:var(--darkreader-background-127fb5, #0e6691)"/>
  <path fill="#e32e29" d="m38.5 157.5 10-23 7.5-9q1 .8 1.5 2a711 711 0 0 0-15.5 31 143 143 0 0 1-6 22q-.3-11.7 2.5-23" style="--darkreader-inline-fill:var(--darkreader-background-e32e29, #ad1b17)"/>
  <path fill="#70c8e6" d="M386.5 122.5a13 13 0 0 1 1.5 5l1-3q3.9 9.3 9 18l1-2q.5 7 2 13 2.7-2 1.5.5 1 .7 2 .5l-5 5q-2.5 0-4 2-3-2.5-1-6-1-3.4-4-5.5 1.5-5.5-3.5-10.5-.3 2.2-1.5 4-3-3.2 0-5.5-2-2.7.5-1.5.6-2.6 2.5-2-.5-1.8-2-3-5 2-1-1.5-2-.6-2-2.5a19 19 0 0 0 3-5" style="--darkreader-inline-fill:var(--darkreader-background-70c8e6, #176681)"/>
  <path fill="#cd2926" d="M66.5 140.5q.3 5.4 3 10 6 5.2 13 8.5 4.5 4.8 7 10.5.4 6 4 11l-3 6-13 4.5a8 8 0 0 1-5 3.5 3 3 0 0 0-1 3l-19 9.5a14 14 0 0 0-4.5 15.5l4.5 13q.8 5 2 10-.5 1.8-2 3 .3.8 1 1.5-2.1 1.2-4-.5a7 7 0 0 0-3.5-4q-3-6.1-4-13a36 36 0 0 1-4.5-6 175 175 0 0 1-1-68l2-1a83 83 0 0 0-2.5 23 143 143 0 0 0 6-22q7.3-15.6 15.5-31-.4-1.2-1.5-2l-7.5 9 2-7q6.2-6.4 12-13.5 1.5-.7 3-.5-1.6 8.4-3 17-.2 6 4 10" style="--darkreader-inline-fill:var(--darkreader-background-cd2926, #a4211e)"/>
  <path fill="#511413" d="M67.5 114.5v4q-3.2 14.3 3.5 27 4.6 4.8 8.5 10a21 21 0 0 1-7.5-6 52 52 0 0 0-5.5-9q-4.5-13.4 1-26" style="--darkreader-inline-fill:var(--darkreader-background-511413, #41100f)"/>
  <path fill="#46418e" d="M295.5 131.5q8.2 6 17 11.5 4.3.8 8 2.5 0 1 1 1a6 6 0 0 1-3 4.5q1.3 6.2 2.5.5 1.5 3 2.5 6a3 3 0 0 1-2 2l-4-2q-1 .2-1 1a60 60 0 0 1-21-27" style="--darkreader-inline-fill:var(--darkreader-text-46418e, #879dc8)"/>
  <path fill="#0365a6" d="M440.5 158.5q-3.6.3-3 4a30 30 0 0 0-8.5 3q-1-2.6.5-5a27 27 0 0 1-2-4.5q.5-1.4 2-2-4.5-8.5-6-17.5-1.5 3.8-2.5 0-1.5 3.4-2.5-1a7 7 0 0 0 2-6l3-5q1.9 0 2.5-2 7.3 10.8 12.5 23-2 3.1 2 3a51 51 0 0 1 0 10" style="--darkreader-inline-fill:var(--darkreader-background-0365a6, #025185)"/>
  <path fill="#bd3533" d="m50.5 127.5-2 7-10 23-2 1q1.1-7.2 4-14v-2z" style="--darkreader-inline-fill:var(--darkreader-text-bd3533, #d05453)"/>
  <path fill="#a03736" d="M66.5 140.5q3.2 4 5.5 9 3.1 3.9 7.5 6 3.5 2.7 8 3 1.4 5.4 2 11-2.5-5.7-7-10.5-7-3.3-13-8.5-2.7-4.6-3-10" style="--darkreader-inline-fill:var(--darkreader-text-a03736, #cc6a69)"/>
  <path fill="#33201e" d="M70.5 113.5q-.5 4 2 7-4.6 17.2 9 28.5 8.7 5.6 15-2.5h3v3a39 39 0 0 1-5 7q-.1-4.2-4.5-4-2.6 0-4.5 1.5a8 8 0 0 1 5 8.5 7 7 0 0 0-3-4q-4.5-.3-8-3-4-5.2-8.5-10a39 39 0 0 1-3.5-27q1.8-2.3 3-5" style="--darkreader-inline-fill:var(--darkreader-background-33201e, #291a18)"/>
  <path fill="#9fe0f3" d="M379.5 170.5q.5 3 3 4h-8l1-2q-2-1.7-1.5-4 2.6-2 5.5-3.5l-1.5-1.5a14 14 0 0 1-10 0l-1.5-4q0-3.3 1-7 1.6 1.8 2.5 4 .9-5 1.5-10h3q.2-2.7-1-5 9.6-7.2 7 4.5 5 3.1 1 7.5 3.2 5.4 5 11.5a10 10 0 0 1-5 2q-1.2 1.7-2 3.5" style="--darkreader-inline-fill:var(--darkreader-background-9fe0f3, #0d5367)"/>
  <path fill="#efd8bd" d="M119.5 194.5h-5q-7.8-3.1-11.5-11a82 82 0 0 1-8.5-27q2.9-3.2 5-7 1-.6 1.5-2 1.6 16 8.5 30.5a4 4 0 0 1-1 2q5.3 7.4 11 14.5" style="--darkreader-inline-fill:var(--darkreader-background-efd8bd, #513514)"/>
  <path fill="#ce2826" d="M253.5 147.5v5a73 73 0 0 0 4.5 24 64 64 0 0 1-2.5 33.5q2 1.5 2 4-1.1 4.5-3.5 8.5l-7.5-9q-1-2.5-4-3-1.3-9-1-18-2.7.8-1 2.5-1 1-2 0a51 51 0 0 0-9.5-8.5 44 44 0 0 0-7.5-6 9 9 0 0 1-2-7q-.5-2.2 1-4 2-1.8 3.5-4 .3-6.3 3-12a138 138 0 0 0 4.5-34 3 3 0 0 1 3 1q2.9 4 6.5 7l1 4q6.2 8 11.5 16" style="--darkreader-inline-fill:var(--darkreader-background-ce2826, #a5201e)"/>
  <path fill="#8fc4e3" d="M349.5 147.5h3q4.3-.5 4.5 4 4.5-3.9 4 3l1-4q1 5.6 2.5 11l-3 2.5q4.8 3.6 10 6.5l-1 1q-4.5-4.4-3.5 1-1-2-2 0l-1-2q-3 1-3.5 4h-6a8 8 0 0 0 6-5.5q0-6.6-6-11v-4q-5.7-.9 0-3-3.1-1-5-3.5" style="--darkreader-inline-fill:var(--darkreader-text-8fc4e3, #88c0e1)"/>
  <path fill="#0996c5" d="M412.5 174.5h-3q-.2-3.8 1.5-8 1.4 1.8 2.5-.5-.7-.7-1-1.5 2.5-2 1.5-5l-1 3a50 50 0 0 1 0-11q-2 .8-4.5 0l1-2q2-3 5-5 1-.6 1.5-2l3.5 3.5q-1.2.5-2 1.5l6 16-5 2a7 7 0 0 0 0 6.5q-3.3.9-6 2.5" style="--darkreader-inline-fill:var(--darkreader-text-0996c5, #44caf6)"/>
  <path fill="#667cbb" d="M328.5 148.5h11q.6 2.2 3 2.5-.7.7-1 1.5 3 4.2 5 9-.5 4.8 0 10a20 20 0 0 0-7-1 38 38 0 0 0-4-6.5q2-4.8-2-8.5l1-2a18 18 0 0 0-6-5" style="--darkreader-inline-fill:var(--darkreader-text-667cbb, #7195c0)"/>
  <path fill="#7896c8" d="M344.5 147.5h2q-.1.9-1 1.5 3 3.6 6.5 6.5 1 1.5-.5 2.5 1.2.5 2 1.5 1 4.2-2 8 1.9 2.7 2 6-2.5-.5-4 1h-6a39 39 0 0 1-6-4h2a20 20 0 0 1 7 1q-.5-5.2 0-10-2-4.8-5-9 .3-.8 1-1.5-2.4-.3-3-2.5 3 .5 5-1" style="--darkreader-inline-fill:var(--darkreader-text-7896c8, #7ca3ca)"/>
  <path fill="#98d3eb" d="M373.5 141.5a9 9 0 0 1 1 5h-3q-.6 5-1.5 10-.9-2.2-2.5-4-1 3.7-1 7l1.5 4q5 1.8 10 0l1.5 1.5q-3 1.5-5.5 3.5-.5 2.3 1.5 4l-1 2h-14q.4-3 3.5-4l1 2q1-2 2 0-.9-5.4 3.5-1l1-1q-5.2-3-10-6.5l3-2.5q-1.5-5.4-2.5-11l-1 4q.5-6.9-4-3-.2-4.5-4.5-4v-1l8-2q7.2.8 13-3" style="--darkreader-inline-fill:var(--darkreader-background-98d3eb, #145069)"/>
  <path fill="#09b0d3" d="M408.5 151.5q2.5.8 4.5 0a50 50 0 0 0 0 11l1-3q1 3-1.5 5 .3.8 1 1.5-1.2 2.3-2.5.5a18 18 0 0 0-1.5 8h-7q.1-1.5-1-2.5-2.3-.5-4-2 2-1 0-2 2-1 3.5.5l1.5-1.5q-.6-2.4 0-5.5-2.5.6-4 0l1-2 5-5z" style="--darkreader-inline-fill:var(--darkreader-text-09b0d3, #3ad6f7)"/>
  <path fill="#83aed6" d="M346.5 147.5h3q1.9 2.5 5 3.5-5.7 2.1 0 3v4q6 4.4 6 11a8 8 0 0 1-6 5.5h-5q1.5-1.5 4-1-.1-3.3-2-6 3-3.8 2-8a5 5 0 0 0-2-1.5q1.5-1.1.5-2.5-3.5-3-6.5-6.5.9-.6 1-1.5" style="--darkreader-inline-fill:var(--darkreader-text-83aed6, #82b1d6)"/>
  <path fill="#5d63a3" d="M321.5 146.5q3.9-.5 7 1v1q3.5 1.8 6 5l-1 2q4 3.7 2 8.5 2.4 3 4 6.5h-2q-3.6-.8-7-2.5-7.5-3.8-14-9.5 0-.8 1-1l4 2a3 3 0 0 0 2-2q-1.1-3-2.5-6-1.2 5.7-2.5-.5a6 6 0 0 0 3-4.5" style="--darkreader-inline-fill:var(--darkreader-text-5d63a3, #6d86ac)"/>
  <path fill="#1fc6dd" d="M398.5 161.5q1.5.6 4 0-.6 3 0 5.5l-1.5 1.5q-1.5-1.5-3.5-.5 2 1 0 2 1.7 1.5 4 2 1.1 1 1 2.5h-20q-2.5-1-3-4 3.6 0 7-1.5 5.8-4 12-7.5" style="--darkreader-inline-fill:var(--darkreader-text-1fc6dd, #38cee3)"/>
  <path fill="#dec3aa" d="M219.5 78.5q2.1 1.6 3.5 4 3.3 10.8 2.5 22 3.5 37.8-16.5 70-6 8.3-14.5 14a3 3 0 0 1 1-3q5.5-3 7-8-1-1.6-2.5-3a13 13 0 0 1-8.5 1q2.7-1.6 5-4-13-1-26-2.5-8.2-2.7-13.5-9.5-1.2 0-1.5 1-.8 0-1-1 5.9-1.7 0-2.5 6-1.8 2-6 3.5-3.3 8-2a68 68 0 0 0 10 4.5q1.2-.5 2-1.5l-5-6q1.8-3.7 3-7.5 1.8-1.5 4-1 1.6 6.5 8.5 6a181 181 0 0 0 12.5-2 26 26 0 0 1-18 4.5q-3.6-3-4.5-7.5-5 12.1 8 12 13.4-1.5 24.5-9-.6 2.5-1.5 5l-1-1q-.7 1.8-2.5 2.5l1 1q4.8-2.2 10.5-3.5 1.6 0 3 1 .7-6.2-.5-11.5 1.8-.6 3-2l-3-4q1.3-4 2.5-.5 3.8-7.7 1.5-16-2.2.9-4 2.5 1.8 1.4-.5 2.5a11 11 0 0 0-4.5-3q-1.4 2.2-3.5 4-2.9-1.8.5-3-5.4-.4-8-5-1.3 4 2 7a60 60 0 0 0 12 10.5q-1.8.3-3 1.5a116 116 0 0 1-25.5-34 30 30 0 0 0 3 16q7.3 10.5 16 20 1.7 8.2-6.5 10 3-4 2.5-9a51 51 0 0 1-4.5-8q-3.7-2.7-7.5-5l-1 1q-.5-2.6 1.5-4.5a13 13 0 0 0-6.5-5.5q-.3-2.9-2.5-4.5l2-8-1-1q1.4-3.5 6-5.5 1.4 1.6 3 2.5l-1 1a18 18 0 0 0 10.5 11.5q1.8-2.3 4.5-3.5-4.4-5 1.5-8.5 1-2-.5-3.5 1.8-8.1 3.5-.5l1-3q2 .9 4 1 2.1-3.8 3 1 0-5.7.5-11" style="--darkreader-inline-fill:var(--darkreader-background-dec3aa, #583c22)"/>
  <path fill="#32251f" d="M159.5 152.5q0-.8 1-1a77 77 0 0 0 32 4v8q-12 .5-23-3.5a37 37 0 0 1-10-7.5" style="--darkreader-inline-fill:var(--darkreader-background-32251f, #281e19)"/>
  <path fill="#2a1e1a" d="M213.5 147.5q1.3-.2 2 1a21 21 0 0 1-20 14v-7a55 55 0 0 0 18-8" style="--darkreader-inline-fill:var(--darkreader-text-2a1e1a, #d3cfc9)"/>
  <path fill="#e9c9a6" d="M209.5 141.5q.9-.1 1.5-1 2-5.3 2.5-11 1.2-1.2 3-1.5a60 60 0 0 1-12-10.5q-3.3-3-2-7 2.6 4.6 8 5-3.3 1.2-.5 3 2-1.8 3.5-4a11 11 0 0 1 4.5 3q2.3-1.2.5-2.5 1.8-1.6 4-2.5 2.3 8.3-1.5 16-1.2-3.6-2.5.5l3 4q-1.2 1.4-3 2 1.2 5.3.5 11.5-1.4-1-3-1-5.7 1.3-10.5 3.5l-1-1q1.8-.7 2.5-2.5l1 1q.9-2.5 1.5-5" style="--darkreader-inline-fill:var(--darkreader-background-e9c9a6, #5e3c17)"/>
  <path fill="#2d2018" d="M213.5 129.5q-.6 5.7-2.5 11-.6.9-1.5 1a52 52 0 0 1-24.5 9q-13 .1-8-12 .9 4.5 4.5 7.5 9.9 1 18-4.5h1q8.1-1.8 6.5-10-8.7-9.5-16-20a30 30 0 0 1-3-16 116 116 0 0 0 25.5 34" style="--darkreader-inline-fill:var(--darkreader-background-2d2018, #241a13)"/>
  <path fill="#36281f" d="M214.5 90.5q3.3 7 7.5 14-.2 9-9.5 8-5 1-7-3.5a4 4 0 0 1 1-2 61 61 0 0 1 11-.5 85 85 0 0 1-3-16" style="--darkreader-inline-fill:var(--darkreader-text-36281f, #cdc9c2)"/>
  <path fill="#46100f" d="M40.5 144.5q-2.9 6.8-4 14-3.7 7.5-4 16l-2 4v-8l1.5-9q4.4-6.3 5-14a5 5 0 0 1 3.5-3" style="--darkreader-inline-fill:var(--darkreader-background-46100f, #380d0c)"/>
  <path fill="#471415" d="M218.5 167.5a53 53 0 0 0-3 9l.5 3q2.5 2.3 4.5 5a7 7 0 0 1-5-3q-4.5-8.4 3-14" style="--darkreader-inline-fill:var(--darkreader-text-471415, #cbc7c0)"/>
  <path fill="#375867" d="M341.5 174.5h77q.5 1 2 1.5-1.1 1-1 2.5a7 7 0 0 0-6-2q-14.7-1.5-30-1-21.3.5-42-1" style="--darkreader-inline-fill:var(--darkreader-background-375867, #2c4652)"/>
  <path fill="#bc2e2d" d="M219.5 173.5q-.5 4 2 7 4 2.5 7.5 6 4.7 3 9.5 8.5 1 1 2 0-1.7-1.7 1-2.5-.3 9 1 18-.9-.1-1.5-1-1.7-5-2.5-10a8 8 0 0 0-6-6.5q-6.3-6.8-13.5-12.5-1.2-3.8.5-7" style="--darkreader-inline-fill:var(--darkreader-background-bc2e2d, #962524)"/>
  <path fill="#282626" d="M418.5 174.5q49.5.3 99 1 .5 3-1 5-6.7-2-14.5-2-23.7-.8-47.5-1-17.1 0-33 2h-1q0-1-1-1-.1-1.5 1-2.5-1.5-.5-2-1.5" style="--darkreader-inline-fill:var(--darkreader-background-282626, #1d2021)"/>
  <path fill="#0e2431" d="M383.5 175.5q15.3-.5 30 1l-6 2q-4-2-8 1h-1a55 55 0 0 0-16-2.5q.9-.6 1-1.5" style="--darkreader-inline-fill:var(--darkreader-text-0e2431, #d4d0cb)"/>
  <path fill="#cccbc9" d="M516.5 180.5q-47.5 0-95-1 15.9-2 33-2 23.8.2 47.5 1 7.8 0 14.5 2" style="--darkreader-inline-fill:var(--darkreader-background-cccbc9, #363a3c)"/>
  <path fill="#7e7e7b" d="M420.5 179.5h1q47.5 1 95 1 .3 1.5-1 2h-1q-37.9-1.8-76 1-.5-1.2-2-1-6.2-.5-12 1a10 10 0 0 0-2.5-2 6 6 0 0 1-1.5 3z" style="--darkreader-inline-fill:var(--darkreader-background-7e7e7b, #5e6669)"/>
  <path fill="#421416" d="M87.5 158.5a7 7 0 0 1 3 4q2.7 9.7 7 19-.7 4.3-4 7-4.5 1.8-9 3-1.4 1.4-2 3-3 0-6 1 6.5-5.2 14-9 4.2-1.5 6-5.5a88 88 0 0 0-7-11.5q-.6-5.6-2-11" style="--darkreader-inline-fill:var(--darkreader-background-421416, #351012)"/>
  <path fill="#cfcecc" d="m514.5 182.5-4 5q-2.2 0-3 2-14 5.3-29 7.5-3.3 1.4-6 3.5h-5q1.2-1.2 3-1.5l-1-1 5-1q-23-1.1-46 .5l-6-.5q2-1.4-.5-1.5a13 13 0 0 1-5.5 1q7.5-2 15-5.5-5.5-1-11 0-4 2-8 2a56 56 0 0 0 12-9.5q5.8-1.5 12-1-.5 3.7-3 6.5 4.7-.4 5-5.5 38.1-2.8 76-1" style="--darkreader-inline-fill:var(--darkreader-background-cfcecc, #34383a)"/>
  <path fill="#9e3737" d="M89.5 169.5a88 88 0 0 1 7 11.5 10 10 0 0 1-6 5.5l3-6q-3.6-5-4-11" style="--darkreader-inline-fill:var(--darkreader-text-9e3737, #cb6b6b)"/>
  <path fill="#1d1c1c" d="M514.5 182.5h1a6 6 0 0 1-5 5z" style="--darkreader-inline-fill:var(--darkreader-text-1d1c1c, #d6d2cd)"/>
  <path fill="#450e0d" d="M259.5 166.5q3.5 5.3 3.5 12 1.4 20.6-1.5 41-1.7 5.9-2.5 12a4 4 0 0 1-2.5 3q5.1-20.7 6-42 0-13.2-3-26" style="--darkreader-inline-fill:var(--darkreader-background-450e0d, #370b0a)"/>
  <path fill="#c23735" d="M36.5 158.5a175 175 0 0 0 1 68q-1-3.1-3-6a340 340 0 0 1-2-46q.3-8.5 4-16" style="--darkreader-inline-fill:var(--darkreader-background-c23735, #9b2c2a)"/>
  <path fill="#232220" d="M436.5 182.5q1.5-.2 2 1-.3 5-5 5.5 2.5-2.8 3-6.5" style="--darkreader-inline-fill:var(--darkreader-text-232220, #d3cfc9)"/>
  <path fill="#a63335" d="M90.5 186.5q-7.5 3.8-14 9-2.3 1.4-5 2a3 3 0 0 1 1-3 8 8 0 0 0 5-3.5z" style="--darkreader-inline-fill:var(--darkreader-text-a63335, #cf6466)"/>
  <path fill="#1f1e1f" d="M341.5 174.5q20.7 1.5 42 1-.1.9-1 1.5 8.5 0 16 2.5-6.5-.3-13-1v7q5-1.1 10-2.5 3-.8 4-3.5 4-3 8-1-11 7-23 12.5a36 36 0 0 0-3.5 4.5q-.4-3.7 2-7 4-12.4-8.5-11.5-6.5 6.1-11 13.5-.2-2 1-3.5a13 13 0 0 1-5-1.5q6.3 1.2 8-5l2-1q.8 0 1-1-16.5-1.5-33-1h-64q-.3 2 1 3-.2 1.5 1 2 3.6 5.5 10 7.5 11 2.6 22 5.5-.9 1-2.5 1-15.4-2.9-29.5-9.5a24 24 0 0 1-4-12.5z" style="--darkreader-inline-fill:var(--darkreader-background-1f1e1f, #17191a)"/>
  <path fill="#3d3a39" d="M354.5 183.5q2.7.8 5 2a13 13 0 0 0 5 1.5q-1.2 1.5-1 3.5 0 2.3-2 3 1-2.4.5-5l-6.5-2a3 3 0 0 1-1-3" style="--darkreader-inline-fill:var(--darkreader-text-3d3a39, #c3beb6)"/>
  <path fill="#92908f" d="M355.5 180.5h12q-1.7 6.2-8 5-2.3-1.2-5-2-5.2-1.5-11-1z" style="--darkreader-inline-fill:var(--darkreader-text-92908f, #a29a8e)"/>
  <path fill="#6d6c69" d="M274.5 180.5h81l-12 2-3 2q-.5-1.2-2-1-31.5-2.7-63-1-1.2-.5-1-2" style="--darkreader-inline-fill:var(--darkreader-background-6d6c69, #51575b)"/>
  <path fill="#c1bfbe" d="m337.5 177.5 32 2-2 1h-93q-1.3-1-1-3z" style="--darkreader-inline-fill:var(--darkreader-background-c1bfbe, #3c4143)"/>
  <path fill="#88878c" d="M337.5 177.5q16.5-.5 33 1-.2 1-1 1z" style="--darkreader-inline-fill:var(--darkreader-background-88878c, #5a6266)"/>
  <path fill="#d2cfcd" d="M338.5 183.5a275 275 0 0 0-13 14.5 57 57 0 0 1-17-1.5q0-1-1-1-11-3-22-5.5a18 18 0 0 1-10-7.5q31.5-1.7 63 1" style="--darkreader-inline-fill:var(--darkreader-background-d2cfcd, #333739)"/>
  <path fill="#252424" d="M510.5 187.5q-.7 2-3 2 .8-2 3-2" style="--darkreader-inline-fill:var(--darkreader-text-252424, #d1cdc7)"/>
  <path fill="#a23635" d="M253.5 147.5q4.2 9 6 19 3 12.8 3 26-.9 21.3-6 42l-2 2a40 40 0 0 0-7-10l-5-16q3 .5 4 3-.3 3 .5 6 2.1 6.2 6.5 11 3.5-5.4 4.5-12 3.2-20 2-40-2.1-13.4-6.5-26z" style="--darkreader-inline-fill:var(--darkreader-background-a23635, #822b2a)"/>
  <path fill="#cbc9c8" d="M343.5 182.5q5.8-.5 11 1a3 3 0 0 0 1 3l6.5 2q.6 2.6-.5 5-4.5 3-6 7a3 3 0 0 1-2 2q-3-6.5-10-5v-4h-10q3-5 7-9z" style="--darkreader-inline-fill:var(--darkreader-text-cbc9c8, #c6c1ba)"/>
  <path fill="#eceaea" d="m407.5 178.5 6-2q3.6-.3 6 2 1 0 1 1v5a12 12 0 0 1-5 4.5 80 80 0 0 0-18 10.5q-17.1 9.7-34.5 19-11.6 6.6-21.5 15.5a13 13 0 0 1-5 .5q-1 .2-2-.5a518 518 0 0 1-19-19.5l18-21h10v4q7-1.5 10 5a3 3 0 0 0 2-2q4-2.5 6-7 2-.7 2-3 4.5-7.4 11-13.5 12.5-1 8.5 11.5a10 10 0 0 0-2 7q1.5-2.3 3.5-4.5 12-5.6 23-12.5" style="--darkreader-inline-fill:var(--darkreader-background-eceaea, #232628)"/>
  <path fill="#737370" d="M398.5 179.5h1q-1 2.7-4 3.5-5 1.5-10 2.5v-7q6.5.7 13 1" style="--darkreader-inline-fill:var(--darkreader-text-737370, #a0988c)"/>
  <path fill="#a23835" d="M32.5 174.5q-.6 23 2 46a137 137 0 0 1-4-42z" style="--darkreader-inline-fill:var(--darkreader-background-a23835, #822d2a)"/>
  <path fill="#291e1c" d="m225.5 104.5 2 17q0 23.5-9 45v1q-7.5 5.6-3 14l-5-4q-2.2.9-4 2.5 1.5 1.5.5 3.5-8.9 2.9-4.5 10.5 2 .8 4 .5l3 7q-2-2.1-5-3a9 9 0 0 0-7-.5q-6.1 2-12 4.5 1.2-2 3-3.5l-2-.5a69 69 0 0 1-22 3.5q2.2 1 4 2.5a6 6 0 0 1-5 2q-11.7-9-25-5l-2 2q-2.2 13 1.5 26a12 12 0 0 0 2.5 4q-1 8.4 7 5.5 3-2.8 7-2.5a26 26 0 0 1-6 6q-5 .7-9-2-2-9.3-5-18-.5-9.7-2-19a77 77 0 0 0-15-4q-1.8.4-2 2-1-.6-1.5-2-.7.7-1.5 1a6 6 0 0 0-5-2v-6a7 7 0 0 1-5-3l-2 1a9 9 0 0 0-3-3q-1.8 1-4 1 3.3-2.7 4-7-4.3-9.3-7-19 .3-6-5-8.5 2-1.5 4.5-1.5 4.4-.2 4.5 4a82 82 0 0 0 8.5 27q3.6 7.9 11.5 11a41 41 0 0 0 16.5 4 52 52 0 0 1 15.5-4.5 82 82 0 0 1-22.5-25.5 10 10 0 0 1-1-5q9.7 14.7 23.5 25.5a40 40 0 0 0 47-.5h1a58 58 0 0 0 14.5-14 110 110 0 0 0 16.5-70" style="--darkreader-inline-fill:var(--darkreader-background-291e1c, #211816)"/>
  <path fill="#2b1e18" d="M191.5 175.5q-24.5 7.2-36-15 .3-1 1.5-1 5.3 6.8 13.5 9.5 13 1.6 26 2.5-2.3 2.4-5 4" style="--darkreader-inline-fill:var(--darkreader-background-2b1e18, #221813)"/>
  <path fill="#e2c4a8" d="M193.5 188.5a40 40 0 0 1-47 .5q-13.8-10.8-23.5-25.5-.2 2.5 1 5a82 82 0 0 0 22.5 25.5 52 52 0 0 0-15.5 4.5 41 41 0 0 1-16.5-4h5q11.6 2.5 21-2.5a7 7 0 0 1-5-5.5q-6-3.5-12-4.5 1.4-2.3 3-4.5-1.6-2.2-3.5-1-.7-6.7-2.5-13 5.6-2.5 8.5 3l1-1q1.2 6.2 7.5 5.5 0 2.3 1 5l7-1.5 5 1q-.7 1.5-2 2.5 5 .3 10 1.5a5 5 0 0 1-4 1q.3 3.7-3 5.5 6.8 5 14 7 4.2 1 8-1l-2-1q11-.7 22-2.5" style="--darkreader-inline-fill:var(--darkreader-background-e2c4a8, #5a3b1e)"/>
  <path fill="#2e2d2b" d="M424.5 183.5a56 56 0 0 1-12 9.5q4 0 8-2 5.5-1 11 0-7.5 3.4-15 5.5-10.5-1-19 5 1.5-1.4 0-2a80 80 0 0 1 18-10.5 12 12 0 0 0 5-4.5q1.2-1.2 1.5-3 1.5.8 2.5 2" style="--darkreader-inline-fill:var(--darkreader-background-2e2d2b, #222426)"/>
  <path fill="#1f1e1d" d="M507.5 189.5a17 17 0 0 1-9 4.5 363 363 0 0 1-26 6.5q2.7-2.1 6-3.5 15-2.2 29-7.5" style="--darkreader-inline-fill:var(--darkreader-background-1f1e1d, #171819)"/>
  <path fill="#373637" d="M361.5 193.5q-2 4.5-6 7 1.5-4 6-7" style="--darkreader-inline-fill:var(--darkreader-text-373637, #c6c1b9)"/>
  <path fill="#dad9d7" d="M467.5 200.5q-8.4 1.6-17 3-2.8-.1-1 1.5-4.3 1-8.5-.5-2.6.1-.5 1.5-12.5.4-25-.5-11.3.5-22-1l4-3q8.5-6 19-5a13 13 0 0 0 5.5-1q2.6.1.5 1.5l6 .5q23-1.5 46-.5l-5 1 1 1q-1.8.3-3 1.5" style="--darkreader-inline-fill:var(--darkreader-background-dad9d7, #2e3233)"/>
  <path fill="#4b1013" d="M76.5 195.5q.1 1.5-1 2.5a9 9 0 0 0-6 4q-7.2 4.6-15 7.5l17-12q2.7-.6 5-2" style="--darkreader-inline-fill:var(--darkreader-text-4b1013, #cbc7c0)"/>
  <path fill="#2b2a2a" d="M467.5 200.5h5q-10.7 4.5-22 3 8.6-1.4 17-3" style="--darkreader-inline-fill:var(--darkreader-text-2b2a2a, #cdc9c2)"/>
  <path fill="#d9d5d4" d="M132.5 203.5q.5 3.7-3 5a24 24 0 0 1-14-7q.2-1.6 2-2a77 77 0 0 1 15 4" style="--darkreader-inline-fill:var(--darkreader-text-d9d5d4, #cecac4)"/>
  <path fill="#c0a797" d="M185.5 202.5q-7.7 6.6-17 2-1.8-1.5-4-2.5 11.4 0 22-3.5l2 .5q-1.8 1.5-3 3.5" style="--darkreader-inline-fill:var(--darkreader-text-c0a797, #c0a796)"/>
  <path fill="#1f2027" d="M115.5 201.5q5.7 5.8 14 7 3.5-1.3 3-5 1.5 9.3 2 19a18 18 0 0 0-4-8.5q-12-5.3-23-12.5-3.6-6-9-10a153 153 0 0 0-42 26.5q3 3.7 3 8.5-3-.6-2-2.5-1.7-3-4-5.5.7-2.2 2-4 10-3.8 16-12.5 5.3-1.5 10-4 1.3-1.5 1-3.5.6-1.6 2-3 4.5-1.2 9-3 2.2 0 4-1 1.8 1.2 3 3l2-1a7 7 0 0 0 5 3v6a6 6 0 0 1 5 2q.8-.3 1.5-1 .4 1.4 1.5 2" style="--darkreader-inline-fill:var(--darkreader-background-1f2027, #1a1d1e)"/>
  <path fill="#331915" d="M204.5 198.5q-3-.3-6 .5-5 3.6-11 5.5-2-.2-3.5 1-.3 2.7-1.5 5-4.5-5.3-9-.5a13 13 0 0 1-5 .5 8 8 0 0 0-5-4 6 6 0 0 0 5-2q9.3 4.6 17-2 5.9-2.5 12-4.5 3.8-1.2 7 .5" style="--darkreader-inline-fill:var(--darkreader-background-331915, #291411)"/>
  <path fill="#421111" d="M163.5 206.5q3.3 1 5 4l-6-2a24 24 0 0 0-10-5.5q-5.3-1-10.5-2.5a11 11 0 0 0-3.5 1q13.3-4 25 5" style="--darkreader-inline-fill:var(--darkreader-text-421111, #cecac3)"/>
  <path fill="#351a19" d="M253.5 142.5q2.1.8 3 3 1.5 6.1 3.5 12 3.3 1.8 1.5 6a249 249 0 0 1 5 40.5 8 8 0 0 0-2 5q1.5 4.3-.5 8.5-.6 2-2.5 2a194 194 0 0 0 1.5-41q0-6.7-3.5-12-1.8-10-6-19z" style="--darkreader-inline-fill:var(--darkreader-background-351a19, #2a1514)"/>
  <path fill="#585856" d="M393.5 204.5q10.7 1.5 22 1 4.2 1.2 9 1.5a512 512 0 0 1-32 .5q-.3-2 1-3" style="--darkreader-inline-fill:var(--darkreader-background-585856, #42474a)"/>
  <path fill="#461315" d="m220.5 184.5 18 15q.8 5 2.5 10 .6.9 1.5 1l5 16q-2.4-1.9-3.5-5-2.4-10-7-19a64 64 0 0 1-9.5-9.5 9 9 0 0 0-5-1.5q.1-4-2-7" style="--darkreader-inline-fill:var(--darkreader-background-461315, #380f11)"/>
  <path fill="#4b0c0d" d="M136.5 203.5q-1 15.5 4 30a12 12 0 0 1-2.5-4q-3.7-13-1.5-26" style="--darkreader-inline-fill:var(--darkreader-text-4b0c0d, #cdc8c2)"/>
  <path fill="#ce2826" d="m162.5 208.5 4 4.5a7 7 0 0 0 1 8l-.5 2.5q-8.4 5.4-15.5 12h-2q-4.8.8-7.5-3-.7-6.7-3-13-1-8 0-16 3.6-1.7 7.5-.5 8 3.2 16 5.5" style="--darkreader-inline-fill:var(--darkreader-background-ce2826, #a5201e)"/>
  <path fill="#421414" d="M204.5 198.5q3 .9 5 3 1.3 10.5.5 21l-2.5 2.5q-10 1.2-20-1a18 18 0 0 1-4.5-5.5q-4.5 3.9-10.5 3a18 18 0 0 1-6 8.5 35 35 0 0 0-12 6.5q-4-.3-7 2.5-8 2.8-7-5.5 2.4 1.2 2 4 4 0 7-2h2a50 50 0 0 0 18.5-12q1-4.4-1.5-8 .6-1.8 2-3l-2-2q2.6.3 5-.5 4.5-4.8 9 .5 1.2-2.3 1.5-5 1.5-1.2 3.5-1-3.7 3.9 0 7a10 10 0 0 0 1 10.5 56 56 0 0 0 19 1 27 27 0 0 0-3-24.5" style="--darkreader-inline-fill:var(--darkreader-background-421414, #351010)"/>
  <path fill="#252322" d="M338.5 183.5q1.5-.2 2 1-4 4-7 9l-18 21q9.1 9.9 19 19.5 1 .7 2 .5 1.5 1.5 4 1-2.5 9-7.5 17a28 28 0 0 1-8.5 7q1.2-2.4 3-4.5-.9-.6-1-1.5v-2q1.2-3.8 0-8 3 2.7 7 1.5 1.5-2.1.5-4.5-11.7-10.2-22.5-21.5-7.5-4.2-6 3.5-2.4.2-3.5-2a5 5 0 0 1-4.5 2q4.2-7 11-11.5 3 .3 6-.5 4-4 7-9-.3-.8-1-1.5a40 40 0 0 1-12-3.5 57 57 0 0 0 17 1.5q6.3-7.6 13-14.5" style="--darkreader-inline-fill:var(--darkreader-background-252322, #1b1d1e)"/>
  <path fill="#a73a38" d="M174.5 210.5q10.2-1.2 6 8.5-9.3.6-6-8.5" style="--darkreader-inline-fill:var(--darkreader-text-a73a38, #cb6664)"/>
  <path fill="#c52b2b" d="M253.5 152.5q4.4 12.6 6.5 26 1.2 20-2 40-1 6.6-4.5 12-4.3-4.8-6.5-11-.8-3-.5-6l7.5 9q2.4-4 3.5-8.5 0-2.5-2-4 5.7-16.1 2.5-33.5a73 73 0 0 1-4.5-24" style="--darkreader-inline-fill:var(--darkreader-background-c52b2b, #9e2222)"/>
  <path fill="#9b3434" d="M204.5 198.5a27 27 0 0 1 3 24.5q-9.6 1.2-19-1a10 10 0 0 1-1-10.5q-3.7-3.1 0-7 6-2 11-5.5 3-.8 6-.5" style="--darkreader-inline-fill:var(--darkreader-text-9b3434, #ce6c6c)"/>
  <path fill="#cf2b26" d="M187.5 211.5v-5l11-5.5q3-1 6 .5 3.6 9.6 3 20-9.6 0-19-1-.6-5 3-8.5a8 8 0 0 0-4-.5" style="--darkreader-inline-fill:var(--darkreader-text-cf2b26, #dc4843)"/>
  <path fill="#a93a39" d="M162.5 208.5q-8-2.3-16-5.5-3.9-1.2-7.5.5-1 8 0 16 2.3 6.3 3 13a7 7 0 0 0 7.5 3q-3 2-7 2 .4-2.8-2-4a79 79 0 0 1-4-30l2-2q1.5-.8 3.5-1 5.2 1.6 10.5 2.5 5.8 1.6 10 5.5" style="--darkreader-inline-fill:var(--darkreader-background-a93a39, #872e2e)"/>
  <path fill="#a03734" d="m162.5 208.5 6 2 2 2q-1.4 1.2-2 3 2.5 3.6 1.5 8a50 50 0 0 1-18.5 12q7-6.6 15.5-12l.5-2.5a7 7 0 0 1-1-8z" style="--darkreader-inline-fill:var(--darkreader-text-a03734, #ce6b69)"/>
  <path fill="#d9d7d5" d="M326.5 243.5a312 312 0 0 1-21-21q-1.5-7.7 6-3.5 10.8 11.3 22.5 21.5 1.1 2.4-.5 4.5-4 1.2-7-1.5" style="--darkreader-inline-fill:var(--darkreader-text-d9d7d5, #cfcbc4)"/>
  <path fill="#244558" d="M107.5 201.5q11 7.2 23 12.5a18 18 0 0 1 4 8.5q3 8.7 5 18 4 2.7 9 2l-4 8q0 3.6 3 5.5 12.6 5.5 25 11.5a351 351 0 0 0-52 5q1.7-13.5.5-27a15 15 0 0 0-3.5-3l-2 8q.5-6-1-12l-1 1-1 29-1 2q-4.5-2.3-9-3.5 1.4 3.3 3 6.5a32 32 0 0 1-7 3q-.7 0-1-.5 1.2-1.5 3-2-2-2 0-4a3 3 0 0 1-2-3.5 7 7 0 0 0 1-4q1 1.2 2.5 2 1.6-1.3 1.5-3 3.5.6 6.5 0 .8-3.4.5-7-2.4.2-3.5-2-.5-6.9-.5-13.5a14 14 0 0 0 3-4q1-1 2 0-1.8 1.3 0 2.5a7 7 0 0 0 3-4q7.5-2.8 6-11 9 .5 2 2.5l3 1.5q1.5 4 1 8l6 .5q-1.5-3.6-3-8.5.7-1.5 1-3a13 13 0 0 1-2-6q-5.6 1.2-7.5-4l-14.5 3q-4-.7-8-2a53 53 0 0 1-8 2q-6 4.4-2-1.5-1.8-.5-3 1.5-.8-.3-1.5-1-.7 1.8 1.5 2.5a5 5 0 0 1-3 .5v8h-4v16q2.4-.2 3.5 2 1.3 11-.5 22-1.8 1-4 1-2.7-25-8.5-49 14.8-7 29.5-14.5 4.5-1.5 9-2.5" style="--darkreader-inline-fill:var(--darkreader-background-244558, #1d3746)"/>
  <path fill="#214a5c" d="M98.5 266.5a12 12 0 0 1-6 2q.4 3.7-3 5a3 3 0 0 1-1-3h-4q-.1-3.8 2-7-3.9-3.2 0-6.5a59 59 0 0 1-4-24.5h8q.4-5 2-10a20 20 0 0 0-2-6 53 53 0 0 0 8-2q4 1.3 8 2l14.5-3q2 5.2 7.5 4 .3 3.3 2 6-.3 1.5-1 3 1.5 5 3 8.5l-6-.5q.5-4-1-8l-3-1.5q7-2-2-2.5 1.5 8.2-6 11a7 7 0 0 1-3 4q-1.8-1.2 0-2.5-1-1-2 0a14 14 0 0 1-3 4q0 6.6.5 13.5a3 3 0 0 0 3.5 2 25 25 0 0 1-.5 7q-3 .6-6.5 0 .1 1.7-1.5 3-1.5-.8-2.5-2 .2 1.6-1 4" style="--darkreader-inline-fill:var(--darkreader-background-214a5c, #1a3b4a)"/>
  <path fill="#202327" d="M305.5 222.5q10 11.1 21 21 1.2 4.2 0 8-11.5-10.6-22-22l-4-6q-14 15.9-29 31.5-5.5 1.4-10.5-1.5-6-9.3-12.5-18 1.5-.1 2.5 1 2.2 2 2.5 5 2 .3 3.5-1 2.8 2.6-.5 3.5 2.3 1.2 3.5 3.5.6-.3.5-1 2.1 6.6 9 5.5 13.8-15 28-29.5 2.8.3 4.5-2a3 3 0 0 0 3.5 2" style="--darkreader-inline-fill:var(--darkreader-background-202327, #1b1d1e)"/>
  <path fill="#234354" d="M233.5 226.5a84 84 0 0 0 8.5 15q7 7.6 13 16a50 50 0 0 0 11.5 9q-.2 15.2 1.5 30a18 18 0 0 0 3.5 2l8-3q2.7-3 5-6.5l-1-1 10-7q6.8-7.3 12.5-15.5.3-5.6 1.5-11 2.4-2.7 3-6.5a10 10 0 0 1-2.5-6.5q-.3 2.4-2.5 4.5-2.4.5-4.5 1.5-1.5-2-3 0-1.5-2.3-3.5-4 4.5-4.8 8.5-10 1.2-1.8 1.5-4 10.5 11.4 22 22v2q-25.5 21-48 45.5-6.5.8-13 .5 3-21.9-11-38.5-10.7-4.4-22-1-6.1 2-12 4.5l-2-1a430 430 0 0 0 15-37" style="--darkreader-inline-fill:var(--darkreader-background-234354, #1c3643)"/>
  <path fill="#325c6f" d="M248.5 235.5q6.5 8.7 12.5 18 5 3 10.5 1.5 15-15.6 29-31.5l4 6q-.3 2.2-1.5 4-4 5.2-8.5 10a94 94 0 0 1-28 23 50 50 0 0 1-11.5-9q-6-8.4-13-16a84 84 0 0 1-8.5-15q.9-5.2 3-10a3 3 0 0 1 1-3l1 1a44 44 0 0 0 10 21" style="--darkreader-inline-fill:var(--darkreader-background-325c6f, #284a59)"/>
  <path fill="#411515" d="M30.5 170.5v8q-1.2 21.6 4 42a60 60 0 0 0 12 30v4q-1.8-.8-3.5-2-7.8-16.6-13-34a299 299 0 0 1-1-44q.3-2.4 1.5-4" style="--darkreader-inline-fill:var(--darkreader-background-411515, #341111)"/>
  <path fill="#a63636" d="M34.5 220.5q2 2.9 3 6l9 24a60 60 0 0 1-12-30" style="--darkreader-inline-fill:var(--darkreader-text-a63636, #cd6464)"/>
  <path fill="#c32d2d" d="M37.5 226.5q2 3.1 4.5 6 1 6.9 4 13a7 7 0 0 1 3.5 4q1.9 1.7 4 .5-.7-.7-1-1.5 1.5-1.2 2-3-1.2-5-2-10a129 129 0 0 1 10 34 7 7 0 0 1-5-3 69 69 0 0 1-8.5-15q-1-1.1-2.5-1z" style="--darkreader-inline-fill:var(--darkreader-background-c32d2d, #9c2424)"/>
  <path fill="#441212" d="M54.5 209.5a21 21 0 0 0-3 8q3.3 13 9 25 3.3 13.5 6 27 .5 3.3-1 6-.3-8.6-2.5-17-5.2-16.4-12-32-1.5-6.4-1-13a6 6 0 0 1 4.5-4" style="--darkreader-inline-fill:var(--darkreader-background-441212, #360e0e)"/>
  <path fill="#325b72" d="M107.5 201.5q-4.5 1-9 2.5-14.7 7.5-29.5 14.5 5.8 24 8.5 49 3 19.5 1 39h-3a421 421 0 0 0-11.5-71q-1.6-4.2-3.5-8 0-1-1-1 0-4.8-3-8.5a153 153 0 0 1 42-26.5q5.4 4 9 10" style="--darkreader-inline-fill:var(--darkreader-background-325b72, #28495b)"/>
  <path fill="#1e4559" d="M266.5 266.5a94 94 0 0 0 28-23q2 1.7 3.5 4 1.5-2 3 0 2.1-1 4.5-1.5a8 8 0 0 0 2.5-4.5q0 3.8 2.5 6.5-.6 3.8-3 6.5-1.2 5.4-1.5 11-5.7 8.2-12.5 15.5l-10 7 1 1a74 74 0 0 1-5 6.5l-8 3a18 18 0 0 1-3.5-2q-1.7-14.8-1.5-30" style="--darkreader-inline-fill:var(--darkreader-background-1e4559, #183747)"/>
  <path fill="#371a1a" d="M46.5 254.5a253 253 0 0 0 18.5 23q.7-1 .5-2 1.5-2.7 1-6 1.5 4.2 1 9-8 .5-11-7a5 5 0 0 0-4-1q0-2.1-1-4a67 67 0 0 0-7-5 21 21 0 0 0 2-7" style="--darkreader-inline-fill:var(--darkreader-text-371a1a, #cecac4)"/>
  <path fill="#a33738" d="m71.5 197.5-17 12a6 6 0 0 0-4.5 4q-.5 6.6 1 13 6.8 15.6 12 32a84 84 0 0 1 2.5 17q.2 1-.5 2a253 253 0 0 1-18.5-23v-4q1.5-.1 2.5 1 3.3 8.1 8.5 15a7 7 0 0 0 5 3 129 129 0 0 0-10-34l-4.5-13a14 14 0 0 1 4.5-15.5z" style="--darkreader-inline-fill:var(--darkreader-background-a33738, #822c2d)"/>
  <path fill="#1e1f25" d="M215.5 181.5a65 65 0 0 1 5 13q2-.3 4 .5l9.5 8.5q2 5.6-.5 11.5.3 3.8 3 1.5a43 43 0 0 0-3 10 430 430 0 0 1-15 37l2 1q5.9-2.5 12-4.5 11.3-3.4 22 1 14 16.7 11 38.5 6.5.3 13-.5 22.5-24.5 48-45.5.1.9 1 1.5a19 19 0 0 0-3 4.5 2447 2447 0 0 0-42 41.5 29 29 0 0 1-18 3.5h-4q-.5-3.3 2-5.5a7 7 0 0 1-2-2.5q0-13.2-5-25-3.7-11.1-15-7-.6-1-2-1.5l3-1q-1.5-1.7-3.5-1.5-4 1.3-.5 2.5-2 1-3.5-.5-3.1 3.5-7.5 2a77 77 0 0 1-14.5 5q-3-2.3-5 1l-2-2a15 15 0 0 1-6.5 3.5q2 4 5.5 8.5 1-1.1 2.5-1a4 4 0 0 1-2 3.5q1.5 1.5.5 3.5-1-1.8-1.5 0a18 18 0 0 0 2 3.5q-1.5 5.2 0 10.5a4 4 0 0 0 2 3.5q.6 2.4-2 4.5 4.2 3.8-1 6 .3.8 1 1.5-6.5 1.5-13.5 1.5-3.7-4.8-4.5-9h-1a254 254 0 0 0-1.5-31 9 9 0 0 0-7.5-2 186 186 0 0 0-59 3.5q-1 2.4-1 5a553 553 0 0 0 7 42.5 4 4 0 0 1-3.5-2 4 4 0 0 1-4.5.5q3.1-.8.5-1.5-3 .4-1.5 2.5-2.2 4.2-6 .5-1.5.7-2.5 2l-7-4q-2 .2-2.5 2-15-5.6-28.5-14l-2.5-23q-4.5-3.5-8-8a8 8 0 0 1 9.5 2q1.4-.9 1.5-2.5L67 258.5q-4.6-14.3-7.5-29 0-1.4 1-2 1.8 3.8 3.5 8 8.8 35.4 11.5 71 11 7 23 12.5a71 71 0 0 0 20 3.5 337 337 0 0 0-5-42q-1-1.3-3-1-6.4-.6-12-3 3.7-1 7-3l-3-6.5q4.5 1.2 9 3.5l1-2 1-29 1-1q1.5 6 1 12-.3 11 1 22h4a351 351 0 0 1 52-5q-12.4-6-25-11.5-3-1.9-3-5.5l4-8q3.6-2.5 6-6 5.3-4.4 12-6.5 4.4-3.4 6-8.5 6 .9 10.5-3 1.8 3.2 4.5 5.5a58 58 0 0 0 20 1l2.5-2.5q.9-10.5-.5-21l-3-7q-2 .3-4-.5-4.4-7.6 4.5-10.5 1-2-.5-3.5 1.8-1.6 4-2.5z" style="--darkreader-inline-fill:var(--darkreader-background-1e1f25, #191b1c)"/>
  <path fill="#6d96a9" d="M165.5 231.5q3.9 1.2 5.5 5 8.3 13 12.5 28a170 170 0 0 1-32-14q-1.8-3.6.5-7 6.1-6.9 13.5-12" style="--darkreader-inline-fill:var(--darkreader-background-6d96a9, #476878)"/>
  <path fill="#385f73" d="M120.5 272.5h-4q-1.3-11-1-22l2-8a15 15 0 0 1 3.5 3q1.2 13.5-.5 27" style="--darkreader-inline-fill:var(--darkreader-text-385f73, #8cb3c7)"/>
  <path fill="#708391" d="M208.5 236.5q-1-10-10.5-6-.7 6.5.5 12-.5 1.8-1.5 0-1.4 4.2-1.5 8.5 0 3 2 4.5-1.3 3.2-3.5 6l-.5-4q2-14 2.5-28 8.8-4.9 14.5 3.5-.5 2.2-2 3.5" style="--darkreader-inline-fill:var(--darkreader-background-708391, #586773)"/>
  <path fill="#ecebec" d="M185.5 230.5q-3.2-.6-4 2.5 1.5 3.9 5 1.5 2.3-3.6 6-6 0 11.6-1 23-.6-5-3-9-2.8-.4-4 2-1.3 1.6-2.5 0-1.3-5.7-3.5-11 1.6-5.2 7-4.5 1.8 1 0 1.5" style="--darkreader-inline-fill:var(--darkreader-text-ecebec, #dcd9d4)"/>
  <path fill="#6d99ab" d="M208.5 236.5q-3.6 10.6-11 19-2-1.5-2-4.5.1-4.3 1.5-8.5 1 1.8 1.5 0-1.2-5.5-.5-12 9.5-4 10.5 6" style="--darkreader-inline-fill:var(--darkreader-text-6d99ab, #78a1b2)"/>
  <path fill="#252424" d="M185.5 230.5a7 7 0 0 1 1 4q-3.5 2.4-5-1.5.8-3 4-2.5" style="--darkreader-inline-fill:var(--darkreader-text-252424, #d1cdc7)"/>
  <path fill="#cfcacb" d="M192.5 228.5a19 19 0 0 0-6 6 7 7 0 0 0-1-4q1.8-.5 0-1.5-5.4-.7-7 4.5 2.2 5.3 3.5 11 1.2 1.6 2.5 0 1 2.7 4 1.5 1.8-1.7 0-3.5 2.4 4 3 9-.6 5.6-2.5 11-8-18-17.5-35l11-5q4.7 3.8 10 6" style="--darkreader-inline-fill:var(--darkreader-background-cfcacb, #35393b)"/>
  <path fill="#161716" d="M188.5 242.5q1.8 1.8 0 3.5-3 1.2-4-1.5 1.2-2.4 4-2" style="--darkreader-inline-fill:var(--darkreader-text-161716, #dad7d2)"/>
  <path fill="#244555" d="M210.5 196.5q10.4 6.5 20 14 1.5-2.3 1-5 1.9 6.8-.5 14-7.5 22.8-16.5 45-9.6 4-20 2.5 9.1-16.7 19.5-32.5 1-3 0-6a5 5 0 0 1-2.5-4q4.4-14.3-1-28" style="--darkreader-inline-fill:var(--darkreader-background-244555, #1d3744)"/>
  <path fill="#3a5f72" d="M220.5 194.5q6 5 11 11 .5 2.7-1 5-9.6-7.5-20-14a9 9 0 0 0-8-5l7-6q5 5.1 11 9" style="--darkreader-inline-fill:var(--darkreader-text-3a5f72, #8db2c5)"/>
  <path fill="#f0efee" d="M255.5 271.5q.9 5.3 2 10.5-1.2 7.8-3 15.5a61 61 0 0 1-11-.5q-.7-.7-1-1.5 4-1.2 8-1.5.7-.7 1-1.5a10 10 0 0 0-6-1q-7.5-1.5-15 0-.8 0-1 1l6 2-.5 1q-4.5 1.5-9.5 1-.2-12.6-2-25 8.3-3.8 17-7 11.3-4.1 15 7" style="--darkreader-inline-fill:var(--darkreader-background-f0efee, #212425)"/>
  <path fill="#20445c" d="M90.5 216.5a20 20 0 0 1 2 6q-1.6 5-2 10h-8a59 59 0 0 0 4 24.5q-3.9 3.3 0 6.5a11 11 0 0 0-2 7h4a3 3 0 0 0 1 3q3.4-1.3 3-5 3.3-.2 6-2-.2 2.4 2 3.5-2 2 0 4-1.8.5-3 2 .3.6 1 .5 5.6 2.4 12 3-6.5-.3-13 .5.8 4.5 3 8.5a8 8 0 0 1-8 1.5 30 30 0 0 0-4-7q-8.8-2-7 6.5l7 2q6 6.6 6 15.5l-5 2.5-11-3q2-19.5-1-39 2.2 0 4-1 1.8-11 .5-22a3 3 0 0 0-3.5-2v-16h4v-8q1.5.2 3-.5-2.2-.7-1.5-2.5.7.7 1.5 1 1.2-2 3-1.5-4 5.9 2 1.5" style="--darkreader-inline-fill:var(--darkreader-background-20445c, #1a364a)"/>
  <path fill="#f8f7f7" d="M177.5 275.5a43 43 0 0 1 2.5 15q.8 32 3 64a52 52 0 0 1-38.5 6q-6 0-11-3-5.7-14-8-29 0-6.5-3-12-3-16.2-5-32.5 0-2.6 1-5a186 186 0 0 1 59-3.5" style="--darkreader-inline-fill:var(--darkreader-background-f8f7f7, #1c1f20)"/>
  <path fill="#355a69" d="M199.5 279.5q.5 2.7-1 5-4.5 1.4-9 1v-10q4.5-.3 9 .5 1.3 1.5 1 3.5" style="--darkreader-inline-fill:var(--darkreader-text-355a69, #94b9c9)"/>
  <path fill="#22495c" d="M110.5 279.5q2-.3 3 1 0 4-2 8.5.7 1.8 2.5 2.5.3 8.3 1.5 16.5-4 5.5 1 10.5-.7 4-3 1.5-10.5-.7-20-5l1-1q-3.4-.7-6-3 .9-.6 1-1.5l5-2.5q0-9-6-15.5l-7-2q-1.8-8.4 7-6.5a30 30 0 0 1 4 7q4.4 1.3 8-1.5a25 25 0 0 1-3-8.5q6.5-.8 13-.5" style="--darkreader-inline-fill:var(--darkreader-background-22495c, #1b3a4a)"/>
  <path fill="#254354" d="M199.5 279.5q3.2 15.6 3.5 32-6 2-12.5 2-1.2-14-1-28 4.5.4 9-1 1.5-2.3 1-5" style="--darkreader-inline-fill:var(--darkreader-background-254354, #1e3643)"/>
  <path fill="#cbc8c6" d="M223.5 271.5q1.8 12.4 2 25 4.9.5 9.5-1l.5-1-6-2q.2-1 1-1 7.5 2 15 0 3.1-.5 6 1-.3.8-1 1.5-4 .3-8 1.5.3.8 1 1.5 5.5.8 11 .5 1.8-7.7 3-15.5-1.1-5.2-2-10.5 5 11.8 5 25-1.5 10.3-12 12.5-6 1-12 0-.7-.7-1-1.5 5.5-2 11-3.5a265 265 0 0 0-23-.5q-.7-14.4-4-28.5 1-2.8 4-3.5" style="--darkreader-inline-fill:var(--darkreader-background-cbc8c6, #373b3e)"/>
  <path fill="#1b1919" d="M245.5 291.5q-7.5 2-15 0 7.5-1.5 15 0" style="--darkreader-inline-fill:var(--darkreader-text-1b1919, #d8d4cf)"/>
  <path fill="#2f2f2e" d="M231.5 282.5q7-.3 14 .5-7.5 2.2-15 1 .9-.6 1-1.5" style="--darkreader-inline-fill:var(--darkreader-text-2f2f2e, #cbc6bf)"/>
  <path fill="#1a1a1a" d="M236.5 273.5q1.5-.2 3 .5-5.1 5-12 5a24 24 0 0 1 9-5.5" style="--darkreader-inline-fill:var(--darkreader-text-1a1a1a, #d8d4cf)"/>
  <path fill="#29404d" d="M113.5 280.5a337 337 0 0 1 5 42 71 71 0 0 1-20-3.5q-12-5.6-23-12.5h3l11 3q-.1.9-1 1.5 2.6 2.3 6 3l-1 1q9.5 4.3 20 5 2.3 2.5 3-1.5-5-5-1-10.5-1.2-8.2-1.5-16.5-1.8-.7-2.5-2.5 2-4.5 2-8.5" style="--darkreader-inline-fill:var(--darkreader-background-29404d, #21333e)"/>
  <path fill="#7e7c7e" d="M122.5 316.5q3 5.5 3 12-1.2-.5-1-2-1.4-5-2-10" style="--darkreader-inline-fill:var(--darkreader-text-7e7c7e, #999083)"/>
  <path fill="#cecbc7" d="M177.5 275.5a9 9 0 0 1 7.5 2 254 254 0 0 1 1.5 31q.4 14.2 2 28a70 70 0 0 1 0 23.5l-6 2q-16.5 1-33 0a13 13 0 0 1-5-1.5 52 52 0 0 0 38.5-6q-2.2-32-3-64a43 43 0 0 0-2.5-15" style="--darkreader-inline-fill:var(--darkreader-background-cecbc7, #363a3c)"/>
  <path fill="#9d9896" d="M186.5 308.5h1q1 14 1 28-1.6-13.8-2-28" style="--darkreader-inline-fill:var(--darkreader-text-9d9896, #a8a095)"/>
  <path fill="#242022" d="M240.5 264.5q-8.7 3.2-17 7-3 .7-4 3.5 3.3 14.1 4 28.5 11.5-.3 23 .5-5.5 1.5-11 3.5.3.8 1 1.5 6 1 12 0 10.5-2.2 12-12.5a7 7 0 0 0 2 2.5 6 6 0 0 0-2 5.5h4q-5.4 9-16 9.5-8 .5-16-1a6 6 0 0 1-4-4q-8.2-.5-16 2.5a13 13 0 0 1-6.5 7l-.5 3.5a178 178 0 0 1 3.5 23.5q-1 2.3-2.5 4.5a44 44 0 0 1-11 2.5q3.7 11.8-8 15.5a128 128 0 0 1-57-2q-4.8-11.5-8.5-23.5-1.6-6-2.5-12-11.4-.4-22-4 .6-1.8 2.5-2l7 4q1-1.3 2.5-2 3.8 3.7 6-.5-1.5-2 1.5-2.5 2.7.7-.5 1.5 2.4 1.1 4.5-.5a4 4 0 0 0 3.5 2q-.2 1.5 1 2 2.3 15 8 29 5 3 11 3a13 13 0 0 0 5 1.5q16.5 1 33 0l6-2q2-12 0-23.5 0-14-1-28 .8 4.2 4.5 9 7 0 13.5-1.5-.7-.7-1-1.5 5.2-2.2 1-6 2.6-2.1 2-4.5a4 4 0 0 1-2-3.5q-1.5-5.3 0-10.5a18 18 0 0 1-2-3.5q.5-1.8 1.5 0 1-2-.5-3.5a4 4 0 0 0 2-3.5q-1.5-.1-2.5 1-3.6-4.5-5.5-8.5a15 15 0 0 0 6.5-3.5l2 2q2-3.3 5-1 7.6-1.8 14.5-5 4.4 1.5 7.5-2 1.5 1.5 3.5.5-3.6-1.2.5-2.5 1.9-.2 3.5 1.5l-3 1q1.4.5 2 1.5" style="--darkreader-inline-fill:var(--darkreader-background-242022, #1a1c1d)"/>
  <path fill="#c5c2c0" d="M196.5 318.5h3l4 26q-5.4 1-11 1a93 93 0 0 1 0-25 14 14 0 0 0 4-2" style="--darkreader-inline-fill:var(--darkreader-text-c5c2c0, #c2bcb4)"/>
  <path fill="#656564" d="M209.5 295.5q1 5.6 3 11 0 .8-1 1a23 23 0 0 1-2-12" style="--darkreader-inline-fill:var(--darkreader-text-656564, #a9a196)"/>
  <path fill="#eae9e9" d="M212.5 306.5a77 77 0 0 1-3-11q0-8.5-3-16-1-8.4 7-5.5 6.8 14.5 4.5 30.5-2.6 1.5-5.5 2" style="--darkreader-inline-fill:var(--darkreader-background-eae9e9, #242729)"/>
</svg>
